<?xml version="1.0" encoding="utf-8"?>
<!-- Generator: Adobe Illustrator 22.1.0, SVG Export Plug-In . SVG Version: 6.00 Build 0)  -->
<svg version="1.1" id="Layer_1" xmlns="http://www.w3.org/2000/svg" xmlns:xlink="http://www.w3.org/1999/xlink" x="0px" y="0px"
	 viewBox="0 0 340.2 340.2" style="enable-background:new 0 0 340.2 340.2;" xml:space="preserve">
<style type="text/css">
	.st0{display:none;}
	.st1{display:inline;fill:#EB5C2F;}
	.st2{fill:#FFFFFF;}
	.st3{font-family:'Museo-500';}
	.st4{font-size:14px;}
	.st5{fill:#D9D9D9;}
	.st6{fill:#B2B2B2;}
	.st7{fill:#F2F2F2;}
	.st8{fill:#EB5C2F;}
	.st9{font-size:22px;}
</style>
<g id="Layer_2_1_" class="st0">
	<rect class="st1" width="340.2" height="340.2"/>
</g>
<text transform="matrix(1 0 0 1 132.8676 246.3886)" class="st2 st3 st4">softCL.com</text>
<g>
	<g>
		<g>
			<polygon class="st5" points="25.7,146.9 18.7,106.3 87.2,106.2 87.2,182.6 18.7,182.7 			"/>
			<polygon class="st6" points="52.1,176.3 87.2,182.6 87.2,106.2 52.1,106.3 			"/>
		</g>
		<g>
			<polygon class="st5" points="314.5,146.8 321.5,105.7 253,105.9 253,182.3 321.5,182.1 			"/>
			<polygon class="st6" points="288,175.8 253,182.3 253,105.9 288,105.8 			"/>
		</g>
		<polygon class="st7" points="288,175.8 52.1,176.3 52.1,99.9 288,99.4 		"/>
	</g>
	<g>
		<path class="st8" d="M94.5,132.3c-0.7,0.8-9.1,9.4-11.2,11.3c-2.2,2.1-3.6,2.7-4.7,2.7c-1.7,0-2.4-1.3-1-4c0.3-0.6,1.6-3,3.1-5.9
			c-0.9,0-2.3,0-3.7,0c-1.4,1.5-2.5,2.8-3.2,3.6c-3.1,3.7-5.6,6.2-9.4,6.2c-6.4,0-2.8-11.8,11.7-12c5.5-5.8,12.8-13.5,12.8-13.5h4
			c0,0-8,15.3-9.1,17.4c-0.4,0.7-1.1,2.1-0.8,2.3c0.2,0.2,0.8-0.3,1.5-0.9c1-0.8,8.7-8.3,9.6-9.3C94.7,129.8,94.7,132.1,94.5,132.3z
			 M74.2,136.5c-7.7,0.5-11.7,7-9.2,7c1.1,0,2.8-0.4,5.8-3.4C71.4,139.4,72.6,138.1,74.2,136.5z M82,134.3c1.4-2.7,2.9-5.6,4.2-8
			c-1.9,2.1-4.7,5.2-7.2,8C80.1,134.3,81.2,134.3,82,134.3z"/>
		<path class="st8" d="M122.8,132.4c-0.7,0.8-9.1,9.4-11.2,11.3c-2.2,2.1-3.6,2.7-4.7,2.7c-1.7,0-2.4-1.3-1-4c1-1.9,1.8-3.5,3-5.6
			c1.1-2,1.4-3.1,0.5-3.1c-1.4,0-7.5,5.7-10.9,11.6c-0.4,0.7-0.6,1.1-0.6,1.1h-4c0,0,3.7-7.2,5-9.6c1-2,1.4-3.1,0.5-3.1
			c-1.5,0-8.3,6.5-11.6,12.7l0.1-0.1l-0.1,0.1h-4l9.1-17.2h4l-4.2,7.9c5.1-6.8,8.8-7.9,10-7.9c2,0,3.6,1.3,1.6,4.9
			c-0.5,1-0.9,1.7-1.6,3c5.1-6.8,8.8-7.9,10-7.9c2,0,3.5,1.2,1.6,4.9c-0.6,1.2-1,2-2.1,4.1c-0.4,0.7-1.1,2.1-0.8,2.3
			c0.2,0.2,0.8-0.3,1.5-0.9c1-0.8,8.7-8.3,9.6-9.3C123,129.9,123,132.1,122.8,132.4z"/>
		<path class="st8" d="M139.7,132.4c-0.7,0.8-9.1,9.4-11.2,11.3c-2.2,2.1-3.6,2.7-4.7,2.7c-1.4,0-2.2-0.9-1.5-2.8
			c-1.5,1.5-3.3,2.8-5.1,2.8c-3.5,0-4.5-4.2-0.9-9.8s6.9-7.5,9.1-7.5c1.5,0,2.5,1.4,2.8,2.9c0.9-1.7,1.5-2.9,1.5-2.9h4
			c0,0-3.6,6.9-4.7,9c-0.4,0.7-1.1,2.1-0.9,2.3c0.2,0.2,0.8-0.3,1.5-0.9c1-0.8,8.7-8.3,9.6-9.3C139.9,129.9,139.9,132.2,139.7,132.4
			z M125.5,137.3c1.7-2.8,1.9-5.1,0.6-5.1s-3.7,2.3-5.4,5.1c-1.6,2.8-1.9,5.1-0.6,5.1C121.4,142.4,123.8,140.1,125.5,137.3z"/>
		<path class="st8" d="M151.1,153.6c-4-0.6-7.8-1.4-10.9-2.1c-2.3,3.6-6.2,5.3-9.9,5.3c-1.6,0-3.9-1.2-3.9-3.4
			c0-2.8,3.1-4.9,7.3-4.9c0.7,0,1.9,0,3.6,0.1c1.1-3,0.1-5-3-5c-1.2,0-0.1-2.5,0.4-2.5c1.3,0,4.1-2.3,5.8-5.1
			c1.6-2.8,2.8-5.1,1.5-5.1c-0.7,0-3.3,2.9-6.1,5.5c-0.5,0.4-1.7-0.6-1-1.2l0,0c3.1-3,6-7.3,8.7-7.3c3.5,0,3.9,4.8,0.3,9.7
			c-1.5,2-3.3,3.5-5.1,4.5c2.3,1.3,3.4,3.8,2.8,6.5c7.3,0.3,16.9,0.6,16.9,0.6S154,151.5,151.1,153.6z M136,150.9
			c-0.7-0.1-1.3-0.1-1.9-0.1c-3.4,0-4.8,2-4.8,3.3c0,0.9,0.5,1.1,1,1.1c1.8,0,3.9-1.6,5.6-4.2C135.9,150.9,136,150.9,136,150.9z"/>
		<path class="st8" d="M162.3,132.5c-0.7,0.8-9.1,9.4-11.2,11.3c-2.2,2.1-3.6,2.7-4.7,2.7c-1.7,0-2.4-1.3-1-4c1-1.9,7-13.3,7-13.3h4
			c0,0-3.6,6.9-4.7,9c-0.4,0.7-1.1,2.1-0.9,2.3c0.2,0.2,0.8-0.3,1.5-0.9c1-0.8,8.7-8.3,9.6-9.3C162.5,130,162.5,132.2,162.3,132.5z
			 M154.3,123.1c0.7-1.6,2.5-2.9,4.1-2.9s2.3,1.3,1.6,2.9s-2.5,2.9-4.1,2.9S153.6,124.7,154.3,123.1z"/>
		<path class="st8" d="M180.5,132.5c-0.7,0.8-9.1,9.4-11.1,11.3c-2.2,2.1-3.6,2.7-4.7,2.7c-1.7,0-2.4-1.3-1-4c1-1.9,1.8-3.5,3-5.6
			c1-2,1.4-3.1,0.5-3.1c-1.5,0-8.3,6.5-11.6,12.7l0.1-0.1l-0.1,0.1h-4l9.1-17.2h4l-4.2,7.9c5.1-6.8,8.8-7.9,10-7.9
			c2,0,3.5,1.2,1.6,4.9c-0.6,1.2-1,2-2.1,4.1c-0.4,0.7-1,2.1-0.8,2.3s0.8-0.3,1.5-0.9c1-0.8,8.7-8.3,9.7-9.3
			C180.7,130,180.8,132.3,180.5,132.5z"/>
		<path class="st8" d="M179.5,151.3c-2.1,3.7-3.4,5.7-6.7,5.7c-1.6,0-3.9-1.2-3.9-3.4c0-3,4.2-4.1,9.3-7.2l1.4-2.7
			c-1.6,1.6-3.4,3-5.3,3c-3.5,0-4.5-4.2-0.9-9.8s6.9-7.5,9.1-7.5c1.5,0,2.5,1.4,2.8,3l1.5-3h4L179.5,151.3z M176.8,149.1
			c-3,2.2-4.9,3.8-4.9,5c0,0.9,0.5,1.1,1,1.1c1,0,1.8-1.9,3.1-4.4L176.8,149.1z M182.5,137.5c1.7-2.8,1.9-5.1,0.6-5.1
			c-1.3,0-3.7,2.3-5.3,5.1s-1.9,5.1-0.6,5.1C178.5,142.6,180.9,140.3,182.5,137.5z"/>
		<path class="st8" d="M214.7,132.6c-0.7,0.8-10.4,9.4-12.4,11.3c-2.2,2.1-3.6,2.7-4.7,2.7c-1.7,0-2.4-1.3-1-4
			c0.5-1,3.2-6.2,5.9-11.2h-3c0.4-0.8,0.7-1.3,0.7-1.3h2.9c2.5-4.8,3.3-6.2,3.3-6.2h4c0,0-1,1.7-3.3,6.2h3c0,0-0.3,0.5-0.7,1.3h-3
			c-1.7,3.2-3.2,6.1-3.6,7c-0.4,0.7-1.1,2.1-0.9,2.3c0.2,0.2,0.8-0.3,1.5-0.9c1-0.8,9.9-8.3,10.9-9.3
			C214.9,130.1,215,132.3,214.7,132.6z"/>
		<path class="st8" d="M233,132.7c-0.7,0.8-9.1,9.4-11.2,11.3c-2.2,2.1-3.6,2.7-4.7,2.7c-1.7,0-2.4-1.3-1-4c1-1.9,1.8-3.5,3-5.6
			c1.1-2,1.4-3.1,0.5-3.1c-1.5,0-8.3,6.5-11.6,12.7h-4l13.5-25.6h4l-8.6,16.3c5.1-6.8,8.8-7.9,10-7.9c2,0,3.5,1.3,1.8,4.6
			c-0.7,1.2-1.2,2.3-2.3,4.4c-0.4,0.7-1,2.1-0.8,2.3s0.8-0.3,1.5-0.9c1-0.8,8.7-8.3,9.6-9.3C233.3,130.1,233.3,132.4,233,132.7z"/>
		<path class="st8" d="M241.9,132.7c-0.7,0.8-9.1,9.4-11.2,11.3c-2.2,2.1-3.6,2.7-4.7,2.7c-1.7,0-2.4-1.3-1-4c1-1.9,7-13.3,7-13.3h4
			c0,0-3.6,6.9-4.7,9c-0.4,0.7-1.1,2.1-0.9,2.3c0.2,0.2,0.8-0.3,1.5-0.9c1-0.8,8.7-8.3,9.6-9.3C242.1,130.1,242.2,132.4,241.9,132.7
			z M233.9,123.3c0.7-1.6,2.5-2.9,4.1-2.9s2.3,1.3,1.6,2.9s-2.5,2.9-4.1,2.9C234,126.2,233.3,124.9,233.9,123.3z"/>
		<path class="st8" d="M260.2,132.7c-0.7,0.8-9.1,9.4-11.1,11.3c-2.2,2.1-3.6,2.7-4.7,2.7c-1.7,0-2.4-1.3-1-4c1-1.9,1.8-3.5,3-5.6
			c1-2,1.4-3.1,0.5-3.1c-1.5,0-8.3,6.5-11.6,12.7l0.1-0.1l-0.1,0.1h-4l9.1-17.2h4l-4.2,7.9c5.1-6.8,8.8-7.9,10-7.9
			c2,0,3.5,1.2,1.6,4.9c-0.6,1.2-1,2-2.1,4.1c-0.4,0.7-1,2.1-0.8,2.3s0.8-0.3,1.5-0.9c1-0.8,8.7-8.3,9.7-9.3
			C260.4,130.2,260.4,132.5,260.2,132.7z"/>
		<path class="st8" d="M276.4,132.8c-4.6,5-9.5,8.9-13.7,12c-1.7,3.2-3.1,5.9-3.5,6.6c-2.1,3.7-3.4,5.7-6.7,5.7
			c-1.6,0-3.9-1.2-3.9-3.4c0-3,4.2-4.1,9.3-7.2l1.4-2.7c-1.6,1.6-3.4,3-5.3,3c-3.5,0-4.5-4.2-0.9-9.8c3.6-5.6,6.9-7.5,9.1-7.5
			c1.5,0,2.5,1.4,2.8,3l1.5-3h4c0,0-3.3,6.3-6.3,12.2c4-3.4,8.8-8.1,11.9-11.1C276.6,130.3,276.7,132.5,276.4,132.8z M256.5,149.3
			c-3,2.2-4.9,3.8-4.9,5c0,0.9,0.5,1.1,1,1.1c1,0,1.8-1.9,3.1-4.4L256.5,149.3z M262.2,137.7c1.7-2.8,1.9-5.1,0.6-5.1
			s-3.7,2.3-5.3,5.1c-1.6,2.8-1.9,5.1-0.6,5.1C258.2,142.7,260.6,140.5,262.2,137.7z"/>
		<path class="st8" d="M281.1,141.7c0,3.7-2.9,9.4-12,9.4c-0.9,0-36.9,0.2-44.8,6c-3-2.1-12.6-7.6-12.6-7.6s54-0.6,57.6-0.6
			c7.1,0,10.6-4.2,10.6-6.2c0-1.5-1.3-1.4-3.1-0.9c-1.7,4.2-4.3,5-6.8,5c-1.6,0-3.8-0.5-3.4-2.8c0.3-1.8,3.3-2.4,6.6-3.3
			c0.3-0.8,0.5-1.7,0.7-2.9c0.7-4.1,1-9.1,5.4-9.5c4.5-0.3-0.2,3.8-0.2,3.8l-1,5.2c-0.1,0.6-0.3,1.3-0.4,1.8l-0.2,0.6
			C279.3,139.5,281.1,139.8,281.1,141.7z M272.1,143.2c-1.5,0.5-2.6,0.9-2.7,1.4c-0.2,1,1.1,0.8,1.7-0.1
			C271.4,144.1,271.8,143.7,272.1,143.2z"/>
	</g>
</g>
<text transform="matrix(1 0 0 1 88.9113 82.2736)" class="st2 st3 st9">We help you do</text>
<text transform="matrix(1 0 0 1 108.4113 206.2736)" class="st2 st3 st9">in the cloud</text>
</svg>
