<?xml version="1.0" encoding="utf-8"?>
<!-- Generator: Adobe Illustrator 25.0.1, SVG Export Plug-In . SVG Version: 6.00 Build 0)  -->
<svg version="1.1" id="Layer_1" xmlns="http://www.w3.org/2000/svg" xmlns:xlink="http://www.w3.org/1999/xlink" x="0px" y="0px"
	 viewBox="0 0 250 250" style="enable-background:new 0 0 250 250;" xml:space="preserve">
<style type="text/css">
	.st0{fill:#FFFFFF;}
</style>
<path class="st0" d="M105.25,188.38H70.71l0.14-127.04h33.96c36.71,0,40.32,0.43,45.09,1.3c10.84,1.88,19.22,9.97,20.52,19.8
	c3.47,25.15-25.29,28.91-34.11,28.91c-11.13,0-19.8,0-28.76,0c-9.39,0-18.07,4.77-23.27,12.28l-7.8,10.98h55.79
	c42.2,0,49.57,17.92,47.41,31.36c-2.02,12.57-12.28,20.67-27.6,21.68C145.29,188.09,139.36,188.38,105.25,188.38 M186.19,125.65
	c-1.88-1.3-4.91-3.47-7.23-4.91c12-7.8,18.36-21.97,18.07-35.7c-0.29-13.87-7.08-27.03-17.49-34.25
	c-11.56-7.95-25.87-12.28-42.35-12.28H44.12v173h97.27c10.26,0,21.25-0.43,31.36-4.19c17.92-6.65,30.21-20.96,32.66-38.16
	C207.87,152.53,200.64,136.35,186.19,125.65"/>
</svg>
