<?xml version="1.0" encoding="utf-8"?>
<!-- Generator: Adobe Illustrator 25.0.1, SVG Export Plug-In . SVG Version: 6.00 Build 0)  -->
<svg version="1.1" id="Layer_1" xmlns="http://www.w3.org/2000/svg" xmlns:xlink="http://www.w3.org/1999/xlink" x="0px" y="0px"
	 viewBox="0 0 250 250" style="enable-background:new 0 0 250 250;" xml:space="preserve">
<style type="text/css">
	.st0{fill:#522A6F;}
	.st1{fill:#FFFFFF;}
</style>
<rect class="st0" width="250" height="250"/>
<g>
	<polygon class="st1" points="135.54,121.45 139.87,121.45 139.87,119.89 135.53,119.89 135.53,116.16 144.46,116.16 144.46,114.59 
		133.74,114.59 133.74,126.56 144.85,126.56 144.85,124.99 135.54,124.99 	"/>
	<path class="st1" d="M195.24,119.92l-2.69-0.57c-1.4-0.29-2.02-0.78-2.02-1.58c0-1.3,1.73-1.76,3.22-1.76c0.04,0,0.09,0,0.13,0
		c2.5,0.05,4.16,0.96,4.17,0.97l0.11,0.06l0.56-1.51l-0.19-0.1c-0.97-0.47-2.78-0.95-4.61-0.95c-3.88,0-5.27,1.75-5.27,3.38
		c0,1.54,1.17,2.61,3.39,3.08l2.55,0.52c1.78,0.35,2.5,0.84,2.5,1.69c0,1.19-1.45,2.01-3.61,2.03h-0.05c-2.01,0-4.15-1.09-4.17-1.11
		l-0.11-0.06l-0.47,1.57l0.18,0.09c0.95,0.5,2.8,1.04,4.62,1.04c3.25,0,5.52-1.5,5.52-3.64C199,121.45,197.88,120.51,195.24,119.92"
		/>
	<path class="st1" d="M178.42,124.06c-0.72,0.59-1.55,0.9-2.48,0.9c-1.06,0.01-5.27,0-5.27,0v-8.76l4.89,0
		c2.36,0,4.24,1.47,4.57,3.62C180.39,121.49,179.81,122.92,178.42,124.06 M175.48,114.6h-6.62v11.96c0,0,6.03,0.01,6.89,0.01h0.01
		c1.47,0,2.78-0.44,3.89-1.32c2.2-1.74,2.94-4.44,1.88-6.9C180.76,116.63,179.11,114.6,175.48,114.6"/>
	<path class="st1" d="M55.23,124.97h-2.39l0.01-8.79l2.35,0c2.54,0,2.79,0.03,3.12,0.09c0.75,0.13,1.33,0.69,1.42,1.37
		c0.24,1.74-1.75,2-2.36,2c-0.77,0-1.37,0-1.99,0c-0.65,0-1.25,0.33-1.61,0.85l-0.54,0.76h3.86c2.92,0,3.43,1.24,3.28,2.17
		c-0.14,0.87-0.85,1.43-1.91,1.5C58,124.95,57.59,124.97,55.23,124.97 M60.83,120.63c-0.13-0.09-0.34-0.24-0.5-0.34
		c0.83-0.54,1.27-1.52,1.25-2.47c-0.02-0.96-0.49-1.87-1.21-2.37c-0.8-0.55-1.79-0.85-2.93-0.85H51v11.97h6.73
		c0.71,0,1.47-0.03,2.17-0.29c1.24-0.46,2.09-1.45,2.26-2.64C62.33,122.49,61.83,121.37,60.83,120.63"/>
	<path class="st1" d="M71.92,135.16c0.95,0,1.64-0.7,1.64-1.63c0-0.94-0.69-1.63-1.64-1.63c-0.95,0-1.64,0.69-1.64,1.63
		C70.27,134.46,70.97,135.16,71.92,135.16 M71.91,131.53c1.17,0,2.04,0.85,2.04,2c0,1.13-0.87,1.99-2.04,1.99
		c-1.16,0-2.03-0.85-2.03-1.99C69.89,132.38,70.76,131.53,71.91,131.53"/>
	<path class="st1" d="M76.51,131.93v2h1.24c0.56,0,1.03-0.37,1.03-0.99c0-0.68-0.46-1.01-1.03-1.01H76.51z M76.11,131.59h1.7
		c0.74,0,1.38,0.43,1.38,1.36c0,0.84-0.64,1.34-1.38,1.34h-1.3v1.18h-0.4V131.59z"/>
	<polygon class="st1" points="82.65,131.93 82.65,135.46 82.25,135.46 82.25,131.93 80.72,131.93 80.72,131.59 84.09,131.59 
		84.09,131.93 	"/>
	<rect x="86.01" y="131.59" class="st1" width="0.4" height="3.88"/>
	<path class="st1" d="M90.62,135.16c0.57,0,1.04-0.22,1.35-0.54l0.2,0.28c-0.38,0.4-0.92,0.63-1.55,0.63c-1.17,0-2.05-0.86-2.05-2
		c0-1.13,0.88-2,2.05-2c0.63,0,1.17,0.22,1.55,0.63l-0.2,0.28c-0.31-0.32-0.78-0.54-1.35-0.54c-0.95,0-1.64,0.7-1.64,1.63
		S89.66,135.16,90.62,135.16"/>
	<rect x="94.29" y="131.59" class="st1" width="0.4" height="3.88"/>
	<path class="st1" d="M97.56,134.22h1.93l-0.94-2.24L97.56,134.22z M98.33,131.59h0.45l1.61,3.88h-0.4l-0.39-0.94h-2.15l-0.41,0.94
		h-0.4L98.33,131.59z"/>
	<polygon class="st1" points="102.78,132.21 102.78,135.46 102.38,135.46 102.38,131.59 102.73,131.59 105.54,134.85 105.54,131.59 
		105.93,131.59 105.93,135.46 105.58,135.46 	"/>
	<path class="st1" d="M108.22,134.81c0.25,0.15,0.73,0.35,1.25,0.35c0.67,0,1.16-0.29,1.16-0.77c0-0.34-0.26-0.52-0.81-0.65
		l-0.77-0.18c-0.62-0.15-0.96-0.47-0.96-0.96c0-0.57,0.46-1.07,1.5-1.07c0.53,0,1.06,0.15,1.35,0.31l-0.12,0.35
		c-0.27-0.16-0.8-0.31-1.24-0.31c-0.76,0-1.09,0.32-1.09,0.68c0,0.32,0.23,0.51,0.67,0.61l0.81,0.19c0.68,0.17,1.07,0.44,1.07,0.99
		c0,0.7-0.66,1.15-1.58,1.15c-0.56,0-1.1-0.19-1.35-0.34L108.22,134.81z"/>
	<path class="st1" d="M116.84,133.29l0.4-0.14c0.38-0.14,0.57-0.34,0.57-0.67c0-0.34-0.33-0.61-0.77-0.61
		c-0.51,0-0.77,0.26-0.77,0.6C116.27,132.8,116.6,133.08,116.84,133.29 M117.89,134.78l-1.17-1.1c-0.41,0.15-0.82,0.36-0.82,0.77
		c0,0.43,0.37,0.72,0.96,0.72C117.24,135.18,117.59,135.04,117.89,134.78 M119.07,133.49c-0.13,0.46-0.34,0.91-0.65,1.27l0.7,0.65
		v0.06h-0.51l-0.46-0.43c-0.35,0.3-0.78,0.49-1.31,0.49c-0.81,0-1.32-0.39-1.32-1.04c0-0.56,0.47-0.85,0.95-1.04
		c-0.3-0.29-0.57-0.56-0.57-0.97c0-0.54,0.43-0.93,1.16-0.93c0.66,0,1.16,0.39,1.16,0.92c0,0.56-0.35,0.82-0.8,0.99l-0.29,0.11
		l1.05,0.97c0.27-0.33,0.48-0.75,0.59-1.22L119.07,133.49z"/>
	<path class="st1" d="M123.93,134.22h1.93l-0.94-2.24L123.93,134.22z M124.7,131.59h0.45l1.61,3.88h-0.4l-0.39-0.94h-2.15
		l-0.41,0.94h-0.4L124.7,131.59z"/>
	<path class="st1" d="M128.98,133.87c0,0.76,0.4,1.29,1.29,1.29c0.89,0,1.3-0.58,1.3-1.3v-2.28h0.39v2.3c0,0.88-0.56,1.64-1.7,1.64
		c-1.13,0-1.69-0.69-1.69-1.64v-2.3h0.4V133.87z"/>
	<path class="st1" d="M134.74,131.93v3.18h1.1c0.96,0,1.64-0.55,1.64-1.59c0-1.04-0.69-1.6-1.64-1.6H134.74z M134.34,131.59h1.51
		c1.17,0.01,2.04,0.68,2.04,1.94c0,1.25-0.87,1.93-2.04,1.93h-1.51V131.59z"/>
	<rect x="140.07" y="131.59" class="st1" width="0.4" height="3.88"/>
	<path class="st1" d="M144.66,135.16c0.95,0,1.64-0.7,1.64-1.63c0-0.94-0.69-1.63-1.64-1.63c-0.95,0-1.64,0.69-1.64,1.63
		C143.01,134.46,143.71,135.16,144.66,135.16 M144.65,131.53c1.17,0,2.04,0.85,2.04,2c0,1.13-0.87,1.99-2.04,1.99
		c-1.16,0-2.03-0.85-2.03-1.99C142.63,132.38,143.5,131.53,144.65,131.53"/>
	<polygon class="st1" points="148.85,135.46 148.85,131.59 149.25,131.59 149.25,135.12 151.52,135.12 151.52,135.46 	"/>
	<path class="st1" d="M154.98,135.16c0.95,0,1.64-0.7,1.64-1.63c0-0.94-0.69-1.63-1.64-1.63c-0.95,0-1.64,0.69-1.64,1.63
		C153.33,134.46,154.03,135.16,154.98,135.16 M154.97,131.53c1.17,0,2.04,0.85,2.04,2c0,1.13-0.87,1.99-2.04,1.99
		c-1.16,0-2.03-0.85-2.03-1.99C152.94,132.38,153.82,131.53,154.97,131.53"/>
	<path class="st1" d="M162.65,135.02c-0.37,0.28-1.04,0.5-1.64,0.5c-1.17,0-2.1-0.74-2.1-1.99c0-1.26,0.94-2,2.1-2
		c0.64,0,1.1,0.21,1.49,0.55l-0.2,0.3c-0.35-0.3-0.74-0.48-1.29-0.48c-0.95,0-1.7,0.61-1.7,1.64c0,1.02,0.76,1.62,1.72,1.62
		c0.46,0,0.94-0.14,1.23-0.34v-1.06h-1.42v-0.34h1.81V135.02z"/>
	<rect x="164.87" y="131.59" class="st1" width="0.4" height="3.88"/>
	<path class="st1" d="M167.56,134.81c0.25,0.15,0.73,0.35,1.25,0.35c0.67,0,1.16-0.29,1.16-0.77c0-0.34-0.26-0.52-0.81-0.65
		l-0.77-0.18c-0.62-0.15-0.96-0.47-0.96-0.96c0-0.57,0.46-1.07,1.51-1.07c0.53,0,1.06,0.15,1.35,0.31l-0.12,0.35
		c-0.27-0.16-0.8-0.31-1.24-0.31c-0.76,0-1.09,0.32-1.09,0.68c0,0.32,0.23,0.51,0.67,0.61l0.81,0.19c0.68,0.17,1.07,0.44,1.07,0.99
		c0,0.7-0.66,1.15-1.58,1.15c-0.56,0-1.1-0.19-1.35-0.34L167.56,134.81z"/>
	<polygon class="st1" points="173.94,131.93 173.94,135.46 173.55,135.46 173.55,131.93 172.01,131.93 172.01,131.59 175.38,131.59 
		175.38,131.93 	"/>
	<path class="st1" d="M177.17,134.81c0.25,0.15,0.73,0.35,1.25,0.35c0.67,0,1.16-0.29,1.16-0.77c0-0.34-0.26-0.52-0.81-0.65
		l-0.77-0.18c-0.62-0.15-0.96-0.47-0.96-0.96c0-0.57,0.46-1.07,1.5-1.07c0.53,0,1.06,0.15,1.35,0.31l-0.12,0.35
		c-0.27-0.16-0.8-0.31-1.24-0.31c-0.76,0-1.09,0.32-1.09,0.68c0,0.32,0.23,0.51,0.67,0.61l0.81,0.19c0.68,0.17,1.07,0.44,1.07,0.99
		c0,0.7-0.66,1.15-1.58,1.15c-0.56,0-1.1-0.19-1.35-0.34L177.17,134.81z"/>
	<rect x="51" y="133.39" class="st1" width="16.12" height="0.29"/>
	<rect x="182.91" y="133.39" class="st1" width="15.93" height="0.29"/>
	<path class="st1" d="M81.43,126.56l-6.42-11.97H73.2l-6.51,11.97h2l1.93-3.57h6.88l1.91,3.57H81.43z M71.51,121.37l2.58-4.76
		l2.55,4.76H71.51z"/>
	<polygon class="st1" points="107.75,119.89 107.75,116.16 116.59,116.16 116.59,114.59 105.93,114.59 105.93,126.56 107.75,126.56 
		107.75,121.5 112.1,121.5 112.1,119.89 	"/>
	<polygon class="st1" points="90.42,126.56 92.3,126.56 92.3,122.74 98.93,114.59 96.61,114.59 91.36,121.16 86.11,114.59 
		83.79,114.59 90.42,122.74 	"/>
	<polygon class="st1" points="154.36,124.99 154.36,114.59 152.54,114.59 152.54,126.56 162.37,126.56 162.37,124.99 	"/>
	<rect x="123.79" y="114.59" class="st1" width="1.81" height="11.97"/>
</g>
</svg>
