<?xml version="1.0" encoding="utf-8"?>
<!-- Generator: Adobe Illustrator 25.0.1, SVG Export Plug-In . SVG Version: 6.00 Build 0)  -->
<svg version="1.1" id="Layer_1" xmlns="http://www.w3.org/2000/svg" xmlns:xlink="http://www.w3.org/1999/xlink" x="0px" y="0px"
	 viewBox="0 0 250 250" style="enable-background:new 0 0 250 250;" xml:space="preserve">
<style type="text/css">
	.st0{fill:#B380B7;}
</style>
<g>
	<path class="st0" d="M199.89,171.02c-1.18,3.66-3.9,6.07-6.85,8.22c-7.15,5.22-14.9,9.41-22.95,13.05
		c-3.12,1.41-6.49,1.85-9.87,2.11c-6.35,0.49-12.72,0.49-19.09,0.78c-2.34,0.11-4.68,0.17-7.02,0.42c-2.7,0.29-5.26-0.41-7.77-1.25
		c-8.47-2.84-16.6-6.44-24.45-10.72c-6.71-3.67-13.72-4.41-20.97-1.73c-2.59,0.96-4.91,2.43-7.18,3.99
		c-1.59,1.1-3.16,2.23-4.87,3.14c-0.43,0.23-0.87,0.43-1.32,0.6c-1.17,0.44-1.51,0.35-2.27-0.63c-4.21-5.4-8.07-11.05-12.05-16.63
		c-0.93-1.3-1.84-2.63-2.81-3.9c-0.46-0.61-0.44-1.15-0.04-1.74c0.54-0.81,1.21-1.51,1.91-2.18c5.57-5.38,11.28-10.61,17.78-14.88
		c6.34-4.16,13.11-7.45,20.4-9.6c3.84-1.14,7.72-1.07,11.64-0.45c6.67,1.06,12.83,3.61,18.91,6.41c3,1.38,5.89,2.98,8.96,4.2
		c4.15,1.65,8.5,2.56,12.88,3.38c4.82,0.91,9.69,1.6,14.38,3.07c1.98,0.62,3.84,1.48,5.14,3.23c1.91,2.56,1.76,5.51-0.42,7.85
		c-2.28,2.44-5.16,3.52-8.43,3.73c-2.62,0.18-5.07-0.62-7.56-1.28c-5.17-1.37-10.42-1.83-15.74-1.17c-0.4,0.05-0.95,0-1.1,0.37
		c-0.16,0.39,0.32,0.7,0.58,0.99c4.55,4.84,10.16,7.38,16.8,7.48c6.16,0.09,12.32-0.15,18.48-0.59c4.8-0.35,9.06-2.08,12.98-4.82
		c3.42-2.39,6.95-4.61,10.88-6.1c2.08-0.79,4.18-1.45,6.45-1.32c2.41,0.14,3.91,1.4,4.42,3.77c0.02,0.1,0.03,0.2,0.15,0.23
		C199.89,169.69,199.89,170.36,199.89,171.02z"/>
	<path class="st0" d="M125.19,110.99c12.41,0,24.81-0.02,37.22,0.01c2.59,0.01,5.2,0.03,7.78,0.39c1.62,0.23,2.12,0.74,2.34,2.4
		c0.25,1.95,0.23,3.92,0.24,5.87c0.05,9.93,0.17,19.87-0.09,29.8c-0.02,0.76-0.08,1.53-0.17,2.28c-0.22,1.76-0.97,2.52-2.72,2.75
		c-1.6,0.2-3.2,0.2-4.81,0.12c-0.74-0.04-1.49-0.13-2.13-0.52c-3.23-1.94-6.87-2.57-10.49-3.26c-6.06-1.16-12.15-2.21-18.09-3.95
		c-3.45-1.01-6.71-2.45-9.9-4.11c-5.63-2.92-11.46-5.39-17.63-6.87c-7.45-1.79-14.82-1.5-22.05,1.26c-2.23,0.85-4.42,1.8-6.59,2.79
		c-0.78,0.35-0.79,0.34-0.8-0.47c-0.05-7.67-0.14-15.33,0.01-23c0.02-0.99,0.09-1.98,0.28-2.96c0.27-1.46,1.04-2.19,2.53-2.28
		c5.14-0.33,10.28-0.28,15.43-0.29c9.88-0.02,19.77-0.01,29.65-0.01C125.19,110.96,125.19,110.97,125.19,110.99z"/>
	<path class="st0" d="M123.97,88.79c15.21-0.01,30.42-0.11,45.63,0.06c2.52,0.03,5.04,0.03,7.55,0.38c1.6,0.22,2.08,0.69,2.27,2.34
		c0.39,3.43,0.36,6.86,0.23,10.3c-0.04,0.97-0.12,1.93-0.23,2.89c-0.19,1.58-0.62,2.04-2.19,2.22c-3.65,0.44-7.32,0.42-10.99,0.43
		c-28.81,0.09-57.63,0.08-86.44-0.01c-2.29-0.01-4.59,0-6.87-0.27c-1.29-0.15-2.29-1.21-2.36-2.49c-0.24-4.22-0.32-8.45,0-12.67
		c0.16-2.05,0.94-2.82,2.98-2.91c5.8-0.28,11.61-0.26,17.42-0.27C101.95,88.77,112.96,88.79,123.97,88.79z"/>
	<path class="st0" d="M138.34,85.29c-3.85,0-7.69,0-11.54,0.01c-0.42,0-0.65-0.01-0.57-0.56c1.15-8.38,4.12-16.06,8.96-23
		c2.45-3.51,5.72-5.94,9.91-6.91c10.46-2.44,17.13,4.7,18.19,12.16c0.63,4.44-0.4,8.47-3.6,11.83c-2.61,2.73-5.7,4.74-9.07,6.36
		c-0.3,0.14-0.6,0.11-0.9,0.11C145.93,85.3,142.13,85.29,138.34,85.29z M156.74,69.52c-0.03-0.79-0.11-1.57-0.28-2.34
		c-0.81-3.77-3.93-6.25-7.77-6.04c-3.33,0.18-5.96,1.77-7.92,4.43c-3.73,5.09-5.78,10.92-7.21,17c-0.18,0.75-0.05,0.86,0.72,0.67
		c4.73-1.12,9.39-2.46,13.79-4.55c2.59-1.23,5.02-2.7,6.94-4.88C156.1,72.58,156.77,71.19,156.74,69.52z"/>
	<path class="st0" d="M111.63,85.29c-3.74,0-7.49-0.01-11.23,0.01c-0.5,0-0.93-0.11-1.38-0.33c-2.95-1.43-5.64-3.2-8.04-5.47
		c-6.74-6.36-5.07-16.68,0.57-21.63c3.25-2.85,7-3.81,11.18-3.42c5.37,0.5,9.32,3.4,12.37,7.65c3.72,5.19,6.13,10.98,7.59,17.18
		c0.37,1.58,0.72,3.17,1.03,4.77c0.24,1.22,0.19,1.24-1,1.24C119.01,85.29,115.32,85.29,111.63,85.29z M93.24,69.84
		c-0.02,1.16,0.46,2.3,1.29,3.32c1.55,1.9,3.39,3.43,5.53,4.61c3.51,1.94,7.3,3.17,11.13,4.28c1.51,0.44,3.04,0.81,4.56,1.21
		c0.52,0.13,0.92,0.14,0.7-0.62c-0.2-0.71-0.3-1.44-0.49-2.15c-1.41-5.28-3.35-10.32-6.65-14.76c-1.61-2.16-3.6-3.7-6.23-4.37
		c-2.46-0.62-4.73-0.25-6.76,1.35C94.05,64.49,93.41,66.97,93.24,69.84z"/>
</g>
</svg>
