<?xml version="1.0" encoding="utf-8"?>
<!-- Generator: Adobe Illustrator 22.1.0, SVG Export Plug-In . SVG Version: 6.00 Build 0)  -->
<svg version="1.1" id="Layer_1" xmlns="http://www.w3.org/2000/svg" xmlns:xlink="http://www.w3.org/1999/xlink" x="0px" y="0px"
	 viewBox="0 0 6 95" style="enable-background:new 0 0 6 95;" xml:space="preserve">
<style type="text/css">
	.st0{fill:#FF9D73;}
	.st1{fill:#B3B3B3;}
	.st2{fill:#C79E70;}
	.st3{fill:#E68D67;}
	.st4{fill:#9A9A9A;}
	.st5{fill:#AE8A62;}
</style>
<g>
	<path class="st0" d="M6,1.1C6,0.5,5.5,0,4.9,0H3v3h3V1.1z"/>
	<rect x="3" y="3" class="st1" width="3" height="7"/>
	<polygon class="st2" points="6,88.8 6,10 3,10 3,89 5.9,89 	"/>
	<path class="st3" d="M0,1.1C0,0.5,0.5,0,1.1,0L3,0v3H0L0,1.1z"/>
	<rect x="0" y="3" class="st4" width="3" height="7"/>
	<polygon class="st5" points="0,88.8 0,10 3,10 3,89 0.1,89 	"/>
	<g>
		<polygon class="st0" points="4.3,93 5.9,89 3,89 3,93 		"/>
		<polygon class="st3" points="3,89 0.1,89 1.7,93 3,93 		"/>
		<polygon points="3,93 1.7,93 2.5,95 3,95 3.5,95 4.3,93 		"/>
	</g>
</g>
</svg>
