<?xml version="1.0" encoding="utf-8"?>
<!-- Generator: Adobe Illustrator 22.1.0, SVG Export Plug-In . SVG Version: 6.00 Build 0)  -->
<svg version="1.1" id="Layer_1" xmlns="http://www.w3.org/2000/svg" xmlns:xlink="http://www.w3.org/1999/xlink" x="0px" y="0px"
	 viewBox="0 0 41 100" style="enable-background:new 0 0 41 100;" xml:space="preserve">
<style type="text/css">
	.st0{fill:#42A200;}
	.st1{fill:none;}
	.st2{fill:#E2E2E0;}
	.st3{fill:#F2F2F2;}
	.st4{fill:#EDB226;}
	.st5{fill:#B3B3B3;}
	.st6{fill:#CCCCCC;}
	.st7{fill:#EB5C2E;}
	.st8{fill:#EB805E;}
</style>
<g>
	<path class="st0" d="M20.1,33.4l-1.6,9.3h1.1h0.7c0.6-2.6,1.1-5.7,1.4-8.9C21.1,34,20.5,33.8,20.1,33.4z"/>
	<path class="st0" d="M20.1,33.4c-0.1-0.1-0.2-0.2-0.2-0.3c-0.3,3.4-0.9,6.7-1.6,9.6h0.2L20.1,33.4z"/>
	<path class="st1" d="M21.8,21.1c0.1,0.2,0.1,0.5,0.2,0.8C22,21.6,21.9,21.3,21.8,21.1C21.8,21.1,21.8,21.1,21.8,21.1
		C21.7,21.1,21.8,21.1,21.8,21.1z"/>
	<path class="st1" d="M24.6,18.7C24.6,18.7,24.6,18.7,24.6,18.7C24.6,18.7,24.6,18.7,24.6,18.7C24.6,18.7,24.6,18.7,24.6,18.7z"/>
	<polygon class="st1" points="22.3,13.9 22.3,13.9 22.3,13.9 	"/>
	<path class="st1" d="M23.5,20.3c0.1-0.1,0.3-0.2,0.4-0.4c0,0,0.1,0.1,0.1,0.1c0,0-0.1-0.1-0.1-0.1C23.8,20,23.6,20.1,23.5,20.3z"/>
	<path class="st1" d="M24,15.1C24,15.1,24,15.1,24,15.1c0.1,0.1,0.1,0.1,0.2,0.2C24.1,15.2,24,15.1,24,15.1z"/>
	<path class="st1" d="M18.6,20.3c0.1,0.1,0.3,0.2,0.4,0.3C18.9,20.5,18.7,20.4,18.6,20.3C18.6,20.3,18.6,20.3,18.6,20.3z"/>
	<path class="st1" d="M17.5,16.1C17.5,16.1,17.5,16.1,17.5,16.1C17.5,16.1,17.5,16.1,17.5,16.1C17.5,16.1,17.5,16.1,17.5,16.1z"/>
	<path class="st0" d="M20.8,21.2c0.1,0,0.1,0,0.2,0C20.9,21.2,20.8,21.2,20.8,21.2C20.8,21.2,20.8,21.2,20.8,21.2z"/>
	<path class="st1" d="M19.2,21.4c0.1-0.2,0.2-0.4,0.4-0.5c0,0,0,0-0.1,0C19.4,21,19.3,21.2,19.2,21.4z"/>
	<path class="st1" d="M20,13.7C20,13.8,20,13.8,20,13.7C20,13.8,20,13.8,20,13.7C20,13.8,20,13.8,20,13.7z"/>
	<path class="st2" d="M18.9,14.3C18.9,14.3,18.9,14.3,18.9,14.3c0.1-0.1,0.2-0.1,0.2-0.2c0,0,0,0,0,0c0,0,0.1-0.1,0.1-0.1
		c0,0,0,0,0,0c0.1,0,0.1-0.1,0.2-0.1c0,0,0,0,0,0c0.2-0.1,0.4-0.1,0.5-0.2c0,0,0,0,0,0c-0.1-0.6-0.3-1.3-0.4-2.2
		c-0.4-1.9-1.1-4.3-2.2-7.5c-0.9-2.5-4-1.3-3.1,1.1c0.8,2.2,1.6,4,2.3,5.5C17.6,12.2,18.3,13.4,18.9,14.3
		C18.8,14.3,18.9,14.3,18.9,14.3z"/>
	<path class="st2" d="M17.3,16.6c0-0.1,0-0.2,0.1-0.3c0,0,0,0,0,0c0-0.1,0-0.1,0.1-0.2c0,0,0,0,0,0c0,0,0,0,0,0c0-0.1,0-0.1,0.1-0.2
		c0,0,0,0,0,0c0-0.1,0-0.1,0.1-0.2c0,0,0,0,0,0c0-0.1,0.1-0.1,0.1-0.2c0,0,0,0,0,0c0,0,0-0.1,0.1-0.1c-0.6-0.5-1.4-1.1-2.3-2
		c-1.5-1.1-3.4-2.4-6.1-4c-2.3-1.3-3.9,1.5-1.6,2.9c2.2,1.3,4.1,2.2,5.7,2.9C15.1,15.8,16.4,16.3,17.3,16.6
		C17.3,16.6,17.3,16.6,17.3,16.6z"/>
	<path class="st2" d="M17.4,18.4C17.4,18.3,17.4,18.3,17.4,18.4c0-0.1,0-0.1,0-0.1c0,0,0,0,0,0c0,0,0,0,0,0c-1,0.1-2.3,0.1-4.1-0.1
		c-1.7,0.1-3.9,0.4-6.5,0.8c-2.6,0.5-2,3.7,0.6,3.2c2.9-0.5,5.2-1.1,6.9-1.6c1.4-0.6,2.6-1,3.4-1.3C17.6,19,17.5,18.7,17.4,18.4z"/>
	<path class="st2" d="M19.5,20.9c-0.1-0.1-0.3-0.1-0.4-0.2c0,0,0,0,0,0c0,0,0,0-0.1,0c-0.2-0.1-0.3-0.2-0.4-0.3
		c-0.8,0.8-2,1.8-3.8,3.1c-1.2,1.1-2.5,2.6-4,4.4c-1.7,2,0.8,4.1,2.5,2.1c2.1-2.5,3.6-4.6,4.7-6.3c0.5-0.9,0.9-1.6,1.2-2.1
		C19.3,21.2,19.4,21,19.5,20.9z"/>
	<path class="st2" d="M22.4,24c-0.2-0.8-0.3-1.5-0.4-2.1c-0.1-0.3-0.1-0.5-0.2-0.8c0,0-0.1,0-0.1,0c0,0,0,0,0,0c0,0,0,0,0,0
		c-0.1,0-0.1,0-0.2,0c0,0,0,0,0,0c-0.1,0-0.1,0-0.2,0c0,0,0,0,0,0c-0.1,0-0.1,0-0.2,0c0,0,0,0,0,0c0,0,0,0-0.1,0c-0.1,0-0.1,0-0.2,0
		c-0.1,0.9-0.3,2.1-0.6,3.6c-0.1,0.5-0.2,1-0.4,1.5c-0.1,1.6-0.2,3.4-0.2,5.6c0,0.5,0.1,0.8,0.3,1.1c0.1,0.1,0.2,0.2,0.2,0.3
		c0.4,0.5,1.1,0.6,1.6,0.4c0.6-0.2,1.2-0.8,1.2-1.9C22.9,28.5,22.6,25.9,22.4,24z"/>
	<path class="st2" d="M23.9,19.9c-0.1,0.1-0.3,0.3-0.4,0.4c0,0,0,0,0,0c0,0-0.1,0.1-0.1,0.1c0,0,0,0,0,0c0,0-0.1,0-0.1,0.1
		c0,0-0.1,0-0.1,0.1c0,0,0,0,0,0c0,0-0.1,0.1-0.1,0.1c0.6,0.9,1.5,2.3,2.4,4.4c0.9,1.3,2,2.8,3.5,4.5c1.7,2,4.2-0.1,2.5-2.1
		c-1.9-2.3-3.6-4-5-5.3c-1.1-0.8-1.9-1.5-2.5-2.1C24,19.9,23.9,19.9,23.9,19.9z"/>
	<path class="st2" d="M35.2,18.4c-2.6-0.5-4.7-0.7-6.4-0.8c-1.7,0.1-3,0.1-3.9,0c0,0,0,0,0,0c0,0,0,0.1,0,0.1c0,0,0,0,0,0
		c0,0,0,0.1,0,0.1c0,0,0,0,0,0.1c0,0,0,0.1,0,0.1c0,0,0,0,0,0.1c0,0,0,0.1,0,0.1c0,0,0,0.1,0,0.1c0,0,0,0,0,0.1c0,0,0,0.1,0,0.1
		c0,0,0,0,0,0.1c0,0,0,0.1,0,0.1c0,0,0,0,0,0c0,0,0,0.1,0,0.1c0,0,0,0,0,0c0,0,0,0,0,0c0,0,0,0,0,0c1,0.3,2.3,0.8,4,1.5
		c1.6,0.4,3.6,0.9,6,1.3C37.2,22.1,37.7,18.8,35.2,18.4z"/>
	<path class="st2" d="M24.1,15.3C24.2,15.3,24.2,15.3,24.1,15.3c0,0.1,0.1,0.1,0.1,0.1c0,0,0,0.1,0.1,0.1c0,0,0,0,0,0
		c0,0,0.1,0.1,0.1,0.1c0,0,0,0,0,0c0,0.1,0.1,0.2,0.1,0.3c0,0,0,0,0,0c0,0.1,0.1,0.1,0.1,0.2c0.8-0.3,1.8-0.7,3.1-1.1
		c1.6-0.7,3.7-1.7,6.1-3.1c2.3-1.3,0.6-4.2-1.6-2.9c-2,1.2-3.7,2.2-5,3.2c-1.3,1.3-2.4,2.2-3.2,2.8C24,15.1,24.1,15.2,24.1,15.3z"/>
	<path class="st2" d="M21.7,13.7C21.7,13.7,21.7,13.7,21.7,13.7c0.1,0,0.1,0,0.1,0c0,0,0,0,0,0c0.1,0,0.2,0,0.2,0.1
		c0.1,0,0.2,0,0.2,0.1c0,0,0,0,0,0c0,0,0,0,0,0c0,0,0.1,0,0.1,0.1c0,0,0,0,0,0c0,0,0.1,0,0.1,0.1c0,0,0,0,0,0c0,0,0.1,0,0.1,0.1
		c0,0,0,0,0,0c0,0,0.1,0,0.1,0c0.3-0.6,0.7-1.3,1.2-2.1c0.9-1.7,1.9-3.9,3-7C28,2.5,24.9,1.4,24,3.9c-0.8,2.1-1.3,3.9-1.7,5.5
		C22.1,11.2,21.8,12.6,21.7,13.7C21.6,13.7,21.6,13.7,21.7,13.7z"/>
	<path class="st3" d="M17.8,15.5c0.3-0.4,0.6-0.8,1-1.1c-0.1,0-0.1,0.1-0.2,0.1c-0.6-0.9-1.3-2.2-2.1-3.8c-0.9-1.3-2-2.8-3.5-4.5
		c-1.7-2-4.2,0.1-2.5,2.1c1.9,2.3,3.6,4,5,5.3C16.5,14.3,17.2,14.9,17.8,15.5C17.8,15.4,17.8,15.5,17.8,15.5z"/>
	<path class="st3" d="M18.8,14.3C18.8,14.3,18.8,14.3,18.8,14.3c-0.5-1-1.2-2.2-2.3-3.7c0.8,1.7,1.5,2.9,2.1,3.8
		C18.7,14.4,18.8,14.4,18.8,14.3z"/>
	<path class="st3" d="M17.8,15.5C17.8,15.5,17.8,15.4,17.8,15.5c-0.6-0.6-1.3-1.2-2.3-2C16.4,14.3,17.2,15,17.8,15.5
		C17.8,15.5,17.8,15.5,17.8,15.5z"/>
	<path class="st3" d="M17.3,18C17.3,18,17.3,18,17.3,18c0-0.2-0.1-0.4-0.1-0.6c0-0.2,0-0.4,0.1-0.6c0,0,0,0,0,0
		c-1-0.3-2.2-0.7-3.9-1.5c-1.6-0.4-3.6-0.9-6-1.3c-2.6-0.5-3.2,2.8-0.6,3.2c2.6,0.5,4.7,0.7,6.4,0.8C15,17.9,16.3,18,17.3,18z"/>
	<path class="st3" d="M17.3,16.8c0,0,0-0.1,0-0.1c-0.9-0.4-2.2-0.9-3.9-1.3C15.1,16.1,16.3,16.5,17.3,16.8
		C17.3,16.8,17.3,16.8,17.3,16.8z"/>
	<path class="st3" d="M17.3,18.1C17.3,18.1,17.3,18.1,17.3,18.1C17.3,18,17.3,18,17.3,18.1c-1-0.2-2.3-0.2-4.1-0.1
		C15,18.2,16.3,18.2,17.3,18.1z"/>
	<path class="st3" d="M18.6,20.3C18.6,20.3,18.6,20.3,18.6,20.3c-0.3-0.3-0.6-0.6-0.8-1c-0.8,0.4-1.9,0.8-3.4,1.2
		c-1.6,0.7-3.7,1.7-6.2,3.1c-2.3,1.3-0.6,4.2,1.6,2.9c2-1.2,3.7-2.2,5-3.2c1.6-1.5,2.8-2.5,3.7-3.2C18.5,20.2,18.5,20.2,18.6,20.3z"
		/>
	<path class="st3" d="M17.7,19.3c-0.9,0.2-2,0.6-3.4,1.3C15.8,20.1,16.9,19.6,17.7,19.3C17.7,19.3,17.7,19.3,17.7,19.3z"/>
	<path class="st3" d="M18.5,20.2c-0.9,0.6-2.1,1.6-3.7,3.2c1.8-1.3,3-2.3,3.8-3.1C18.5,20.2,18.5,20.2,18.5,20.2z"/>
	<path class="st3" d="M20.4,21.1c-0.3,0-0.6-0.1-0.9-0.2c-0.1,0.2-0.2,0.3-0.4,0.5c-0.3,0.6-0.7,1.3-1.2,2.1c-0.9,1.7-1.9,4-3,7
		c-0.9,2.5,2.2,3.6,3.1,1.1c0.8-2.1,1.3-3.9,1.7-5.4c0.1-1.5,0.3-2.8,0.5-3.8C20.3,22,20.4,21.5,20.4,21.1z"/>
	<path class="st3" d="M20.4,21.1c-0.1,0.4-0.1,0.9-0.2,1.4c0.1-0.5,0.2-1,0.3-1.4c0.1,0,0.1,0,0.2,0c0,0,0,0,0,0
		C20.7,21.2,20.5,21.1,20.4,21.1z"/>
	<path class="st3" d="M18,23.6c0.5-0.8,0.9-1.5,1.2-2.1C18.8,22,18.4,22.7,18,23.6z"/>
	<path class="st3" d="M20.3,22.5c-0.2,1-0.4,2.2-0.5,3.8c0.1-0.5,0.3-1,0.4-1.5C20.2,23.9,20.2,23.2,20.3,22.5z"/>
	<path class="st3" d="M20.3,22.5c-0.1,0.7-0.1,1.4-0.1,2.3c0.4-1.5,0.5-2.7,0.6-3.6c-0.1,0-0.1,0-0.2,0C20.5,21.5,20.4,22,20.3,22.5
		z"/>
	<path class="st3" d="M21.9,21.1c0,0.2,0.1,0.5,0.1,0.8c0.1,0.6,0.3,1.3,0.4,2.1c0.4,1.9,1.1,4.3,2.2,7.5c0.9,2.5,4,1.3,3.1-1.1
		c-0.8-2.2-1.6-4-2.2-5.4c-1.3-1.9-2.1-3.3-2.6-4.3C22.6,20.9,22.2,21,21.9,21.1z"/>
	<path class="st3" d="M22.4,24c-0.1-0.8-0.2-1.5-0.4-2.1C22.1,22.5,22.2,23.2,22.4,24z"/>
	<path class="st3" d="M22.9,20.7c0.5,1,1.3,2.4,2.6,4.3c-1-2-1.8-3.4-2.4-4.4C23,20.6,22.9,20.7,22.9,20.7z"/>
	<path class="st3" d="M23.9,19.9C23.9,19.9,24,19.9,23.9,19.9c0.8,0.6,1.6,1.3,2.6,2.2c1.5,1.1,3.4,2.5,6.1,4
		c2.3,1.3,3.9-1.5,1.6-2.9c-2.2-1.3-4.1-2.2-5.7-2.9c-1.8-0.5-3.1-1-4.1-1.4C24.3,19.2,24.1,19.6,23.9,19.9z"/>
	<path class="st3" d="M26.5,22.1c-1-0.9-1.8-1.6-2.5-2.1C24.6,20.5,25.4,21.2,26.5,22.1z"/>
	<path class="st3" d="M24.5,18.9c0.9,0.4,2.3,0.9,4.1,1.4c-1.7-0.8-3.1-1.2-4-1.5C24.5,18.8,24.5,18.8,24.5,18.9z"/>
	<path class="st3" d="M24.8,17.4c0,0.1,0,0.1,0,0.2C24.8,17.5,24.8,17.5,24.8,17.4c1,0,2.3,0,3.9,0.1c1.7-0.1,3.9-0.4,6.5-0.8
		c2.6-0.5,2-3.7-0.6-3.2c-2.9,0.5-5.2,1.1-6.9,1.6c-1.3,0.5-2.3,0.9-3.1,1.2C24.7,16.6,24.8,17,24.8,17.4z"/>
	<path class="st3" d="M24.8,17.5C24.8,17.5,24.8,17.5,24.8,17.5c0,0.1,0,0.1,0,0.1c1,0.1,2.2,0.1,3.9,0
		C27.1,17.4,25.8,17.4,24.8,17.5z"/>
	<path class="st3" d="M24.6,16.2c0.8-0.3,1.8-0.6,3.1-1.2C26.4,15.5,25.4,15.8,24.6,16.2C24.6,16.2,24.6,16.2,24.6,16.2z"/>
	<path class="st3" d="M22.8,14.1c0.4,0.2,0.8,0.6,1.2,1c0,0,0,0,0,0c0-0.1-0.1-0.1-0.1-0.2c0.8-0.7,1.9-1.6,3.3-2.6
		c1.2-1.1,2.5-2.6,4-4.4c1.7-2-0.8-4.1-2.5-2.1c-2.1,2.5-3.6,4.6-4.6,6.3C23.6,12.9,23.2,13.5,22.8,14.1
		C22.8,14.1,22.8,14.1,22.8,14.1z"/>
	<path class="st3" d="M24,15.1c0.8-0.6,1.9-1.5,3.2-2.8c-1.5,1-2.6,1.9-3.3,2.6C23.9,15,23.9,15,24,15.1z"/>
	<path class="st3" d="M22.8,14.1C22.8,14.1,22.8,14.1,22.8,14.1c0.4-0.6,0.8-1.2,1.2-2.1C23.5,12.8,23.1,13.5,22.8,14.1
		C22.8,14.1,22.8,14.1,22.8,14.1z"/>
	<path class="st3" d="M20,13.8c0.3-0.1,0.7-0.1,1-0.1c0.1,0,0.2,0,0.3,0c0,0,0,0,0,0c0.1-1.1,0.4-2.5,0.9-4.3
		c0.1-1.6,0.2-3.4,0.2-5.6c0-2.6-3.3-2.6-3.3,0c0,3.4,0.2,6,0.5,7.9C19.8,12.4,19.9,13.1,20,13.8C20,13.8,20,13.8,20,13.8z"/>
	<path class="st3" d="M19.6,11.6c0.1,0.9,0.3,1.6,0.4,2.2C19.9,13.1,19.8,12.4,19.6,11.6z"/>
	<path class="st3" d="M21.3,13.7c0.1,0,0.2,0,0.2,0c0.2-1.1,0.5-2.5,0.6-4.3C21.7,11.1,21.5,12.6,21.3,13.7
		C21.3,13.6,21.3,13.7,21.3,13.7z"/>
	<path class="st4" d="M24.6,16.2C24.6,16.2,24.6,16.2,24.6,16.2c0-0.1-0.1-0.2-0.1-0.2c0,0,0,0,0,0c0-0.1-0.1-0.2-0.1-0.3
		c0,0,0,0,0,0c0,0,0-0.1-0.1-0.1c0,0,0,0,0,0c0,0,0-0.1-0.1-0.1c0,0,0,0,0-0.1c0,0,0,0,0,0c-0.1-0.1-0.1-0.1-0.2-0.2
		c-0.3-0.4-0.7-0.7-1.2-1c0,0-0.1,0-0.1-0.1c0,0,0,0,0,0c0,0-0.1,0-0.1-0.1c0,0,0,0,0,0c0,0-0.1,0-0.1-0.1c0,0,0,0,0,0
		c0,0-0.1,0-0.1-0.1c0,0,0,0,0,0c-0.1,0-0.2-0.1-0.2-0.1c-0.1,0-0.2,0-0.2-0.1c0,0,0,0,0,0c0,0-0.1,0-0.1,0c0,0,0,0,0,0
		c-0.1,0-0.2,0-0.3,0c-0.1,0-0.2,0-0.3,0c-0.3,0-0.7,0-1,0.1c0,0,0,0,0,0c0,0,0,0,0,0c-0.2,0.1-0.4,0.1-0.5,0.2c0,0,0,0,0,0
		c-0.1,0-0.1,0-0.2,0.1c0,0,0,0,0,0c0,0-0.1,0.1-0.1,0.1c0,0,0,0,0,0c-0.1,0-0.1,0.1-0.2,0.1c0,0-0.1,0-0.1,0.1c0,0,0,0,0,0
		c-0.4,0.3-0.8,0.7-1,1.1c0,0,0,0.1-0.1,0.1c0,0,0,0,0,0c0,0.1-0.1,0.1-0.1,0.2c0,0,0,0,0,0c0,0.1,0,0.1-0.1,0.2c0,0,0,0,0,0
		c0,0.1,0,0.1-0.1,0.2c0,0,0,0,0,0c0,0.1,0,0.1-0.1,0.2c0,0,0,0,0,0c0,0.1-0.1,0.2-0.1,0.3c0,0.1,0,0.1,0,0.2c0,0.2-0.1,0.4-0.1,0.6
		c0,0.2,0,0.4,0.1,0.7c0,0,0,0.1,0,0.1c0,0,0,0,0,0c0,0,0,0.1,0,0.1c0,0,0,0,0,0c0.1,0.3,0.2,0.6,0.4,0.9c0,0,0,0,0,0
		c0.2,0.4,0.5,0.7,0.8,1c0.1,0.1,0.3,0.2,0.4,0.3c0,0,0,0,0.1,0c0,0,0,0,0,0c0.1,0.1,0.3,0.1,0.4,0.2c0,0,0,0,0,0c0,0,0,0,0.1,0
		c0.3,0.1,0.6,0.2,0.9,0.2c0.1,0,0.2,0,0.3,0c0.1,0,0.1,0,0.2,0c0,0,0,0,0.1,0c0.1,0,0.1,0,0.2,0c0,0,0,0,0,0c0.1,0,0.1,0,0.2,0
		c0,0,0,0,0,0c0.1,0,0.1,0,0.2,0c0,0,0,0,0,0c0,0,0,0,0,0c0.1,0,0.1,0,0.2,0c0.3-0.1,0.7-0.2,1-0.4c0,0,0,0,0,0
		c0.1-0.1,0.2-0.1,0.3-0.2c0,0,0,0,0,0c0,0,0.1,0,0.1-0.1c0,0,0.1,0,0.1-0.1c0,0,0,0,0,0c0,0,0.1-0.1,0.1-0.1c0,0,0,0,0,0
		c0.1-0.1,0.3-0.3,0.4-0.4c0.3-0.3,0.5-0.6,0.6-1c0,0,0,0,0,0c0,0,0-0.1,0.1-0.1c0,0,0,0,0,0c0,0,0-0.1,0-0.1c0,0,0,0,0,0
		c0,0,0-0.1,0-0.1c0,0,0,0,0-0.1c0,0,0-0.1,0-0.1c0,0,0,0,0-0.1c0,0,0-0.1,0-0.1c0,0,0-0.1,0-0.1c0,0,0,0,0-0.1c0,0,0-0.1,0-0.1
		c0,0,0,0,0-0.1c0,0,0-0.1,0-0.1c0,0,0,0,0,0c0,0,0-0.1,0-0.1c0,0,0,0,0,0c0,0,0-0.1,0-0.2C24.8,17,24.7,16.6,24.6,16.2z"/>
	<path class="st4" d="M20,13.8c-0.2,0.1-0.4,0.1-0.5,0.2C19.7,13.9,19.8,13.8,20,13.8C20,13.8,20,13.8,20,13.8z"/>
	<path class="st4" d="M18.8,14.3C18.8,14.3,18.8,14.3,18.8,14.3C18.8,14.3,18.9,14.3,18.8,14.3C18.9,14.3,18.8,14.3,18.8,14.3z"/>
	<path class="st4" d="M17.3,16.7c0,0,0,0.1,0,0.1C17.3,16.7,17.3,16.7,17.3,16.7C17.3,16.6,17.3,16.6,17.3,16.7z"/>
	<path class="st4" d="M17.8,15.5c0,0,0,0.1-0.1,0.1C17.7,15.5,17.8,15.5,17.8,15.5C17.8,15.5,17.8,15.5,17.8,15.5z"/>
	<path class="st4" d="M17.3,18.1C17.3,18.1,17.3,18.1,17.3,18.1C17.3,18.1,17.3,18.1,17.3,18.1C17.3,18.1,17.3,18.1,17.3,18.1z"/>
	<path class="st4" d="M17.4,18.4c0.1,0.3,0.2,0.6,0.4,0.9c0,0,0,0,0,0c0,0,0,0,0,0C17.6,19,17.5,18.7,17.4,18.4z"/>
	<path class="st4" d="M19.1,20.7c0.1,0.1,0.3,0.1,0.4,0.2c0,0,0,0,0,0C19.4,20.8,19.2,20.7,19.1,20.7z"/>
	<path class="st4" d="M21,21.2C21,21.2,21,21.2,21,21.2C21,21.2,21,21.2,21,21.2C21,21.2,21,21.2,21,21.2z"/>
	<path class="st4" d="M22.9,20.7c0,0,0.1-0.1,0.1-0.1c0,0,0.1-0.1,0.1-0.1C23.1,20.6,23,20.6,22.9,20.7
		C22.9,20.7,22.9,20.7,22.9,20.7z"/>
	<path class="st4" d="M24.5,18.9c0,0,0-0.1,0-0.1c0,0,0,0,0,0C24.5,18.8,24.5,18.8,24.5,18.9C24.5,18.9,24.5,18.9,24.5,18.9z"/>
	<path class="st4" d="M24.8,17.6C24.8,17.6,24.8,17.6,24.8,17.6C24.8,17.6,24.8,17.6,24.8,17.6C24.8,17.6,24.8,17.6,24.8,17.6z"/>
	<path class="st4" d="M24.6,16.2C24.6,16.2,24.6,16.2,24.6,16.2c0-0.1-0.1-0.2-0.1-0.2C24.5,16.1,24.6,16.1,24.6,16.2
		C24.6,16.2,24.6,16.2,24.6,16.2z"/>
	<path class="st4" d="M21.6,13.7c-0.1,0-0.2,0-0.2,0C21.5,13.7,21.6,13.7,21.6,13.7C21.6,13.7,21.6,13.7,21.6,13.7z"/>
	<path class="st4" d="M22.8,14.1C22.8,14.1,22.8,14.1,22.8,14.1C22.8,14.1,22.8,14.1,22.8,14.1C22.8,14.1,22.8,14.1,22.8,14.1z"/>
	<polygon class="st5" points="23.3,64.1 8.4,64.1 7.7,65.6 7.7,98.3 19.5,98.3 20.8,98.3 24,98.3 24,65.6 	"/>
	<polygon class="st5" points="20.8,42.7 20.2,42.7 19.5,42.7 18.4,42.7 18.2,42.7 7.7,42.7 7.7,52 8.4,53.4 23.3,53.4 24,52 
		24,42.7 	"/>
	<polygon class="st5" points="28.6,53.4 32,53.4 32.6,52 32.6,42.7 29.2,42.7 29.2,52 	"/>
	<polygon class="st5" points="29.2,65.6 29.2,98.3 32.6,98.3 32.6,65.6 32,64.1 28.6,64.1 	"/>
	<polygon class="st6" points="23.3,53.4 28.6,53.4 29.2,52 29.2,42.7 24,42.7 24,52 	"/>
	<polygon class="st6" points="28.6,64.1 23.3,64.1 24,65.6 24,98.3 29.2,98.3 29.2,65.6 	"/>
	<rect x="28.6" y="53.4" class="st7" width="3.4" height="10.7"/>
	<rect x="8.4" y="53.4" class="st7" width="15" height="10.7"/>
	<rect x="23.3" y="53.4" class="st8" width="5.3" height="10.7"/>
</g>
</svg>
