<?xml version="1.0" encoding="utf-8"?>
<!-- Generator: Adobe Illustrator 22.1.0, SVG Export Plug-In . SVG Version: 6.00 Build 0)  -->
<svg version="1.1" id="Layer_1" xmlns="http://www.w3.org/2000/svg" xmlns:xlink="http://www.w3.org/1999/xlink" x="0px" y="0px"
	 viewBox="0 0 340.2 340.2" style="enable-background:new 0 0 340.2 340.2;" xml:space="preserve">
<style type="text/css">
	.st0{fill:#FFFFFF;}
</style>
<g>
	<path class="st0" d="M320.6,261.5c-7.5,0-14.8,0-22.2,0c-2.9,0-5.8,0-8.8-0.1c-4.3-0.1-6.8-3.6-5.4-7.3c0.8-2.2,2.6-3.3,5.5-3.3
		c4.5,0,8.9,0.1,13.4,0.1c2.2,0,4.5,0,6.9,0c0-0.7,0-1.4,0-2.1c0-17.1,0-34.1,0-51.2c0-23.5-16.3-44.6-39-50.5
		c-0.4-0.1-0.8-0.2-1.2-0.3c-3.8-1-3.8-1-3.6-4.8c0.5-13.8-3.7-25.9-12.6-36.4c-23.2-27.1-65.5-24.1-84.7,6c-1.1,1.7-2.1,3.4-3.2,5
		c-3.2-2.5-6.1-5.2-9.3-7.4C125,87.7,82,105.2,74.8,142.7c-0.5,2.5-1.5,3.5-4,4.2c-21.9,5.8-35.5,19.8-39.7,42
		c-5.5,28.8,13.9,55.9,42.2,61c4.8,0.9,19.2,1.4,23.6,0.8c-1.7-1.8-3.3-3.4-5-5.1c-1.5-1.5-2-3.3-1.4-5.4c1-3.5,5.5-4.9,8.1-2.4
		c5,4.7,9.8,9.6,14.6,14.5c1.8,1.9,1.8,4.8,0,6.7c-4.8,4.9-9.6,9.8-14.6,14.6c-2,1.9-5.3,1.6-7.1-0.5c-1.8-2.1-1.7-4.9,0.4-6.9
		c1.5-1.6,3-3.2,4.5-4.8c-0.4,0-1-0.1-1.6-0.1c-5.5-0.1-11.1,0.1-16.6-0.3c-14.9-1-27.9-6.7-38.8-17c-11.2-10.5-17.6-23.5-19.4-38.7
		C16.3,175.6,34.4,147.4,63,138c1.5-0.5,2.1-1.2,2.6-2.7c8-24.9,24.8-40.2,50.5-45c16.6-3.1,32,0.7,46,10c0.3,0.2,0.7,0.4,1,0.7
		c0,0,0.1,0,0.2,0c2.4-2.5,4.6-5.1,7.1-7.4c10.8-10,23.6-15.7,38.3-16.8c30.9-2.3,58.7,17.6,66.3,47.7c1,4,1.4,8.1,1.9,12.2
		c0.1,1,0.4,1.3,1.3,1.7c19,7,32.1,20,39,39c2.3,6.3,3.5,12.8,3.5,19.5c0,21.1,0,42.2,0,63.4C320.7,260.6,320.6,261,320.6,261.5z"/>
	<path class="st0" d="M168.8,210.6c2-6.4,3.8-12.5,5.7-18.5c0.2-0.8,0.6-2,1.1-2.1c1.3-0.3,2.7-0.1,4.1,0c0.2,0,0.4,0.6,0.5,1
		c2,6.4,4,12.7,6.1,19.4c0.3-0.8,0.4-1.4,0.6-2c1.5-5.1,3-10.2,4.5-15.3c0.8-2.8,1.5-3.3,4.5-3.3c0.8,0,1.7,0,2.7,0
		c0,1.5,0,2.8,0,4.3c-1.7-0.1-2.2,1.1-2.7,2.6c-2,6.1-4.1,12.2-6,18.4c-0.3,1.1-0.8,1.4-1.9,1.4c-4.3,0-4.3,0-5.6-4
		c-1.6-4.9-3.2-9.9-4.9-15.1c-0.2,0.5-0.4,0.8-0.5,1.1c-1.8,5.5-3.6,11.1-5.3,16.6c-0.3,1.1-0.8,1.4-1.9,1.4c-4.3,0-4.4,0-5.7-4.2
		c-1.8-5.3-3.6-10.6-5.2-16c-0.5-1.8-1.5-2.5-3.3-2.4c-1.7,0.1-3.4,0-5.2,0c0,4.6-0.2,9.2,0.1,13.7c0.2,3,2.5,4.3,6.5,4.3
		c0,1.4,0,2.9,0,4.3c-4.8,1.2-11.4-1.1-11.7-7.8c-0.2-4.2-0.2-8.5-0.1-12.7c0-1.3-0.3-1.8-1.7-1.8c-2.1,0.1-4.1,0.1-6.2,0
		c-1.2,0-1.6,0.4-1.6,1.6c0,6.3,0,12.6,0,18.9c0,0.6,0,1.2,0,1.9c-1.8,0-3.4,0-5.2,0c0-7.5,0-14.8,0-22.3c-1.1,0-2.1,0-3.1,0
		c0-1.4,0-2.7,0-4.1c1,0,1.9,0,3,0c0.1-3.6,0.6-7,3.9-9.1c2.5-1.6,5.2-1.9,8.2-1.5c0,1.4,0,2.8,0,4.3c-2,0-4.2-0.1-5.5,1.8
		c-0.8,1.1-1,2.7-1.6,4.3c3.5,0,6.6,0,9.8,0c0-2.3,0-4.6,0-7c1.8,0,3.4,0,5.1,0c0,2.3,0,4.6,0,7.1c2.9,0,5.7,0,8.4,0
		c3.4,0,4,0.4,5,3.7C165.3,199.1,167,204.7,168.8,210.6z"/>
	<path class="st0" d="M266.4,254.2c0,1.9,0,3.7,0,5.6c-2.4,0-4.7,0.1-7.1,0c-1.8-0.1-2.4-1.4-2.6-3.1c-2.8,3.4-6.3,4.4-10.2,3.7
		c-5-0.8-7.9-4.1-9.2-8.8c-0.9-3.3-0.9-6.7,0-10c2.4-8.6,11.7-11.8,19.2-6.3c0-2.1,0-4,0-5.9c0-0.3-0.7-0.7-1.1-0.8
		c-0.6-0.1-1.2,0-2,0c0-1.9,0-3.7,0-5.7c2.5,0,5-0.1,7.5,0c1.6,0.1,2.4,1.4,2.4,3.6c0,8.2,0,16.5,0,24.7c0,0.3,0,0.7,0,1
		c-0.2,1.4,0.4,2.2,1.9,2C265.6,254.1,266,254.2,266.4,254.2z M243.5,246.2c0.2,1.4,0.3,2.6,0.6,3.6c0.8,3.1,3.1,4.9,6,4.9
		c2.9,0,5.2-1.8,6.1-4.8c0.7-2.5,0.7-5.1-0.3-7.5c-1-2.5-2.9-4-5.6-4.1c-2.5-0.1-4.9,1.4-5.9,4C243.9,243.6,243.7,245.1,243.5,246.2
		z"/>
	<path class="st0" d="M162,234.6c-2.2,0-4.1,0-6.2,0c-0.1-0.3-0.3-0.7-0.2-1c0.3-2.5-1.2-3.6-3.4-4.4c-5.2-1.7-10.7-0.1-13.7,4
		c-3.2,4.4-3,11.3,0.4,15.9c3.3,4.4,8.7,5.9,14.1,4c1.2-0.4,2.3-1,3.4-1.7c1.1-0.7,2-1.5,3.1-2.4c1.2,1.6,2.4,3.2,3.6,4.9
		c-3.5,3.7-7.8,5.7-12.7,6.3c-8.5,1.1-16.2-3.1-19.7-10.7c-3.6-7.8-1.9-17.2,4.2-22.9c6.9-6.4,17.5-5.7,23.7-2
		c2.2,1.4,3.5,3.4,3.3,6.2C161.9,232.2,162,233.3,162,234.6z"/>
	<path class="st0" d="M226.7,233.2c2.3,0,4.4,0,6.8,0c0,0.6,0,1.2,0,1.7c0,5.5,0,11.1,0,16.6c0,2.4,0,2.4,2.4,2.5
		c0.2,0,0.4,0.1,0.8,0.1c0,1.8,0,3.6,0,5.6c-2.4,0-4.9,0.1-7.3,0c-1.7-0.1-2.2-1.2-2.5-4.1c-2.5,3.5-5.9,5.1-10.1,4.8
		c-4.6-0.3-7.6-2.9-8-7.6c-0.3-3.5-0.2-7.1-0.3-10.6c0-3.2,0-3.2-3.1-3.6c0-0.3-0.1-0.6-0.1-1c0-1.5,0-3,0-4.6c2.6,0,5-0.1,7.4,0
		c1.7,0.1,2.5,1.2,2.5,3.1c0,3.6,0,7.2,0,10.8c0,0.6,0,1.3,0,1.9c0.1,1.9,0.1,4,2.2,4.9c2.3,1,4.4,0.4,6.2-1.2c2.2-1.8,3-4.4,3-7.2
		c0-3.5,0-7,0-10.5C226.7,234.5,226.7,233.9,226.7,233.2z"/>
	<path class="st0" d="M190.6,260.5c-8.5-0.1-14.6-6.1-14.5-14.4c0.1-7.8,6.5-13.7,14.8-13.7c8.3,0.1,14.6,6.1,14.5,14.1
		C205.4,254.7,199.1,260.6,190.6,260.5z M198.5,246.6c0-4.7-3.3-8.2-7.8-8.2c-4.4,0-7.8,3.5-7.8,8.2c0,4.7,3.3,8.2,7.8,8.2
		C195.2,254.7,198.5,251.2,198.5,246.6z"/>
	<path class="st0" d="M72.7,211.4c1.1-1.3,2-2.4,3.1-3.7c2.2,2.1,4.6,4,7.7,4.2c1.6,0.1,3.5,0,5-0.7c3.5-1.6,3.9-6,0.8-8.3
		c-1.8-1.3-3.9-2.2-5.8-3.3c-2.3-1.3-4.9-2.4-6.9-4.1c-4.8-4.2-4.1-11.4,1.3-14.7c4.8-2.9,9.8-2.7,14.7-0.2c3,1.5,3.7,3.9,3.1,8
		c-1.5,0-3,0-4.8,0c0-1.7-0.1-3.4-2.1-4.2c-2.3-0.9-4.5-1.1-6.8-0.1c-3.6,1.5-4.3,5.6-1.1,7.9c1.8,1.3,3.9,2.1,5.9,3.1
		c2,1,4.1,1.9,5.8,3.2c6.2,4.7,5,14.1-2,17.3C85,218.5,76.8,216.5,72.7,211.4z"/>
	<path class="st0" d="M204.8,196.9c-1.2,0-2.7,0-4.2,0c-0.7-4.2,0.5-6.1,4.4-7.1c2.9-0.8,5.9-0.8,8.8-0.1c4,1,6.3,3.6,6.5,7.8
		c0.2,3.9,0.1,7.8,0.1,11.7c0,2.6,0,2.6,2.7,2.8c0.2,0,0.3,0.1,0.5,0.2c0,1.4,0,2.8,0,4.4c-1.5,0-2.9,0-4.3,0
		c-2.8-0.1-3.6-0.8-4-3.8c-0.4,0.5-0.8,0.9-1.2,1.3c-3.2,3.6-9.7,4.1-13.4,0.9c-4.1-3.6-3.5-10,1.4-12.7c3.3-1.9,7-2.2,10.8-2.4
		c0.7,0,1.4,0,2.1,0c0.2-2.3,0-4.3-2-5.5c-2.3-1.3-4.8-1.3-7-0.1C205.5,194.6,205.3,195.8,204.8,196.9z M215.1,203.7
		c-3.1,0-6.3-0.1-9.2,1.3c-1.6,0.8-2.5,2.1-2.4,4c0.1,1.7,1.2,3,3,3.6C211.2,214,216.1,209.1,215.1,203.7z"/>
	<path class="st0" d="M112.9,217c-8,0.3-14.4-5.7-14.7-13.8c-0.2-7.5,5.8-13.7,13.7-14.1c8.1-0.3,14.7,5.5,15,13.2
		C127.3,210.5,121.3,216.7,112.9,217z M121.6,203c0-5.4-3.9-9.2-9.2-9.2c-5,0.1-8.8,4.1-8.8,9.4c0.1,5.2,4,9.3,9,9.2
		C117.7,212.5,121.6,208.3,121.6,203z"/>
	<path class="st0" d="M265,203.8c-6.2,0-12.5,0-19,0c0.2,3.2,1.4,5.8,4.1,7.3c4.5,2.6,8.6,1.2,12.6-1.7c0.7,1.2,1.4,2.3,2.2,3.6
		c-2,2.1-4.5,3.1-7.2,3.7c-7.9,1.7-15.2-2.7-16.9-10.4c-1.1-5.1-0.1-10,3.9-13.7c3.7-3.5,8.3-4.3,13.1-2.8
		C263.2,191.5,266.6,198.3,265,203.8z M259.8,199.9c0.1-3.7-2.3-6.4-5.8-6.6c-3.9-0.2-7.3,2.8-7.6,6.6
		C250.8,199.9,255.2,199.9,259.8,199.9z"/>
	<path class="st0" d="M175.9,259.9c-2.4,0-4.8,0.1-7.1,0c-1.7-0.1-2.6-1-2.7-2.9c-0.1-1.8,0-3.7,0-5.5c0-6.8,0-13.6,0-20.4
		c0-2.4,0-2.4-2.5-2.5c-0.2,0-0.4-0.1-0.7-0.1c0-1.8,0-3.6,0-5.5c2.6,0,5.3-0.1,7.9,0.1c0.7,0.1,1.4,1.2,1.8,2
		c0.3,0.7,0.2,1.6,0.2,2.4c0,7.8,0,15.7,0,23.5c0,3.1,0,3.1,3.1,3.5C175.9,256,175.9,257.8,175.9,259.9z"/>
	<path class="st0" d="M223.3,194.2c0-1.5,0-2.8,0-4.3c2,0,3.9-0.1,5.7,0c1.6,0.1,2.4,1.1,2.5,2.7c0.1,0.7,0,1.5,0.1,2.3
		c2.1-3.5,4.9-5.8,9.4-5.4c0,1.7,0,3.3,0,5.1c-2.6-0.3-4.9,0.5-6.7,2.5c-2.1,2.3-2.6,5.2-2.7,8.1c-0.1,3.7,0,7.3,0,11.1
		c-1.7,0-3.3,0-5.2,0c0-0.6,0-1.2,0-1.8c0-5.6,0-11.2,0-16.8C226.6,194.2,227,194.4,223.3,194.2z"/>
</g>
</svg>
