<?xml version="1.0" encoding="utf-8"?>
<!-- Generator: Adobe Illustrator 22.1.0, SVG Export Plug-In . SVG Version: 6.00 Build 0)  -->
<svg version="1.1" id="Layer_1" xmlns="http://www.w3.org/2000/svg" xmlns:xlink="http://www.w3.org/1999/xlink" x="0px" y="0px"
	 viewBox="0 0 340.2 340.2" style="enable-background:new 0 0 340.2 340.2;" xml:space="preserve">
<style type="text/css">
	.st0{fill:#EB5C2E;}
	.st1{fill:#FFFFFF;}
</style>
<rect class="st0" width="340.2" height="340.2"/>
<g>
	<path class="st1" d="M273.5,234.7c-5.2,0-10.2,0-15.2,0c-2,0-4,0-6,0c-2.9-0.1-4.7-2.5-3.7-5c0.6-1.5,1.8-2.3,3.7-2.3
		c3.1,0,6.1,0,9.2,0.1c1.5,0,3.1,0,4.8,0c0-0.5,0-1,0-1.4c0-11.7,0-23.4,0-35.2c0-16.1-11.2-30.6-26.8-34.7
		c-0.3-0.1-0.5-0.2-0.8-0.2c-2.6-0.7-2.6-0.7-2.5-3.3c0.4-9.5-2.5-17.8-8.7-25c-15.9-18.6-45-16.5-58.2,4.1
		c-0.7,1.2-1.5,2.3-2.2,3.4c-2.2-1.8-4.2-3.6-6.4-5.1c-21.6-14.9-51.1-2.8-56.1,22.9c-0.3,1.7-1,2.4-2.7,2.9
		c-15,4-24.4,13.6-27.3,28.9c-3.8,19.8,9.5,38.4,29,41.9c3.3,0.6,13.2,0.9,16.2,0.5c-1.2-1.2-2.3-2.3-3.4-3.5c-1-1-1.4-2.3-1-3.7
		c0.7-2.4,3.8-3.4,5.6-1.6c3.4,3.3,6.7,6.6,10,10c1.3,1.3,1.3,3.3,0,4.6c-3.3,3.4-6.6,6.7-10,10c-1.4,1.3-3.6,1.1-4.9-0.3
		c-1.3-1.4-1.1-3.3,0.2-4.8c1-1.1,2-2.2,3.1-3.3c-0.3,0-0.7,0-1.1,0c-3.8-0.1-7.6,0.1-11.4-0.2c-10.3-0.7-19.2-4.6-26.6-11.7
		c-7.7-7.2-12.1-16.2-13.3-26.6c-2.5-20.5,9.9-40,29.6-46.4c1-0.3,1.4-0.9,1.8-1.9c5.5-17.1,17-27.6,34.7-30.9
		c11.4-2.1,22,0.5,31.6,6.9c0.2,0.2,0.5,0.3,0.7,0.5c0,0,0.1,0,0.1,0c1.6-1.7,3.2-3.5,4.9-5.1c7.4-6.9,16.2-10.8,26.3-11.6
		c21.2-1.6,40.3,12.1,45.5,32.8c0.7,2.7,0.9,5.6,1.3,8.4c0.1,0.7,0.3,0.9,0.9,1.1c13.1,4.8,22,13.7,26.8,26.8
		c1.6,4.3,2.4,8.8,2.4,13.4c0,14.5,0,29,0,43.5C273.5,234,273.5,234.3,273.5,234.7z"/>
	<path class="st1" d="M169.2,199.7c1.4-4.4,2.6-8.6,3.9-12.7c0.2-0.5,0.4-1.3,0.8-1.4c0.9-0.2,1.9-0.1,2.8,0c0.1,0,0.3,0.4,0.4,0.7
		c1.4,4.4,2.7,8.8,4.2,13.3c0.2-0.6,0.3-1,0.4-1.4c1-3.5,2.1-7,3.1-10.5c0.6-1.9,1.1-2.3,3.1-2.3c0.6,0,1.2,0,1.8,0c0,1,0,1.9,0,3
		c-1.1,0-1.5,0.8-1.8,1.8c-1.4,4.2-2.8,8.4-4.1,12.6c-0.2,0.7-0.5,1-1.3,1c-3,0-3,0-3.9-2.8c-1.1-3.4-2.2-6.8-3.3-10.4
		c-0.1,0.3-0.3,0.5-0.3,0.7c-1.2,3.8-2.5,7.6-3.6,11.4c-0.2,0.7-0.6,0.9-1.3,0.9c-3,0-3,0-3.9-2.9c-1.2-3.7-2.4-7.3-3.6-11
		c-0.4-1.2-1-1.7-2.3-1.6c-1.2,0.1-2.3,0-3.6,0c0,3.2-0.1,6.3,0,9.4c0.1,2.1,1.7,3,4.5,2.9c0,1,0,2,0,3c-3.3,0.8-7.8-0.7-8.1-5.4
		c-0.2-2.9-0.1-5.8-0.1-8.7c0-0.9-0.2-1.3-1.2-1.2c-1.4,0.1-2.8,0.1-4.2,0c-0.8,0-1.1,0.3-1.1,1.1c0,4.3,0,8.7,0,13
		c0,0.4,0,0.8,0,1.3c-1.2,0-2.4,0-3.6,0c0-5.1,0-10.2,0-15.3c-0.8,0-1.4,0-2.1,0c0-1,0-1.9,0-2.8c0.7,0,1.3,0,2.1,0
		c0.1-2.5,0.4-4.8,2.7-6.3c1.7-1.1,3.6-1.3,5.6-1c0,1,0,1.9,0,3c-1.4,0-2.9,0-3.8,1.3c-0.5,0.8-0.7,1.8-1.1,2.9c2.4,0,4.5,0,6.7,0
		c0-1.6,0-3.2,0-4.8c1.2,0,2.3,0,3.5,0c0,1.6,0,3.2,0,4.9c2,0,3.9,0,5.8,0c2.4,0,2.8,0.3,3.4,2.5C166.8,191.8,168,195.7,169.2,199.7
		z"/>
	<path class="st1" d="M236.3,229.7c0,1.3,0,2.5,0,3.9c-1.7,0-3.3,0-4.9,0c-1.2,0-1.6-0.9-1.8-2.2c-1.9,2.3-4.3,3-7,2.5
		c-3.5-0.6-5.4-2.8-6.3-6.1c-0.6-2.3-0.6-4.6,0-6.9c1.6-5.9,8-8.1,13.2-4.3c0-1.4,0-2.7,0-4c0-0.2-0.5-0.5-0.7-0.6
		c-0.4-0.1-0.9,0-1.4,0c0-1.3,0-2.6,0-3.9c1.7,0,3.4-0.1,5.1,0c1.1,0.1,1.7,1,1.7,2.4c0,5.7,0,11.3,0,17c0,0.2,0,0.5,0,0.7
		c-0.1,1,0.2,1.5,1.3,1.4C235.7,229.6,236,229.7,236.3,229.7z M220.5,224.2c0.2,1,0.2,1.8,0.4,2.5c0.6,2.1,2.2,3.4,4.1,3.4
		c2,0,3.6-1.2,4.2-3.3c0.5-1.7,0.5-3.5-0.2-5.2c-0.7-1.7-2-2.7-3.8-2.8c-1.7-0.1-3.3,1-4,2.7C220.8,222.4,220.7,223.4,220.5,224.2z"
		/>
	<path class="st1" d="M164.5,216.2c-1.5,0-2.8,0-4.2,0c-0.1-0.2-0.2-0.5-0.1-0.7c0.2-1.7-0.8-2.5-2.4-3c-3.6-1.2-7.3-0.1-9.4,2.8
		c-2.2,3-2.1,7.8,0.3,10.9c2.2,3,5.9,4.1,9.7,2.7c0.8-0.3,1.6-0.7,2.3-1.1c0.7-0.4,1.4-1,2.2-1.6c0.8,1.1,1.6,2.2,2.5,3.4
		c-2.4,2.5-5.3,3.9-8.7,4.3c-5.8,0.7-11.1-2.1-13.5-7.3c-2.5-5.4-1.3-11.8,2.9-15.7c4.8-4.4,12-3.9,16.2-1.3
		c1.5,0.9,2.4,2.3,2.3,4.2C164.5,214.6,164.5,215.3,164.5,216.2z"/>
	<path class="st1" d="M209,215.2c1.6,0,3,0,4.7,0c0,0.4,0,0.8,0,1.2c0,3.8,0,7.6,0,11.4c0,1.7,0,1.7,1.7,1.7c0.2,0,0.3,0,0.5,0.1
		c0,1.2,0,2.5,0,3.8c-1.7,0-3.4,0.1-5,0c-1.1-0.1-1.5-0.8-1.7-2.8c-1.7,2.4-4,3.5-6.9,3.3c-3.2-0.2-5.2-2-5.5-5.2
		c-0.2-2.4-0.2-4.9-0.2-7.3c0-2.2,0-2.2-2.1-2.5c0-0.2,0-0.4,0-0.7c0-1,0-2,0-3.1c1.8,0,3.4-0.1,5.1,0c1.2,0.1,1.7,0.9,1.7,2.1
		c0,2.5,0,5,0,7.4c0,0.4,0,0.9,0,1.3c0.1,1.3,0.1,2.7,1.5,3.3c1.5,0.7,3,0.2,4.3-0.8c1.5-1.3,2.1-3,2.1-4.9c0-2.4,0-4.8,0-7.2
		C209,216.2,209,215.7,209,215.2z"/>
	<path class="st1" d="M184.2,234c-5.9,0-10-4.2-10-9.9c0-5.3,4.5-9.4,10.1-9.4c5.7,0.1,10,4.2,10,9.7C194.3,230,190,234.1,184.2,234
		z M189.6,224.4c0-3.2-2.3-5.6-5.3-5.6c-3.1,0-5.4,2.4-5.4,5.6c0,3.2,2.3,5.7,5.3,5.6C187.3,230,189.6,227.6,189.6,224.4z"/>
	<path class="st1" d="M103.2,200.3c0.7-0.9,1.4-1.7,2.1-2.6c1.5,1.5,3.2,2.7,5.3,2.9c1.1,0.1,2.4,0,3.4-0.5c2.4-1.1,2.7-4.1,0.6-5.7
		c-1.2-0.9-2.7-1.5-4-2.3c-1.6-0.9-3.3-1.7-4.7-2.9c-3.3-2.9-2.8-7.9,0.9-10.1c3.3-2,6.8-1.9,10.1-0.1c2,1.1,2.6,2.7,2.1,5.5
		c-1,0-2.1,0-3.3,0c0-1.2-0.1-2.3-1.4-2.9c-1.6-0.6-3.1-0.7-4.7-0.1c-2.5,1-2.9,3.8-0.7,5.4c1.2,0.9,2.7,1.4,4,2.2
		c1.3,0.7,2.8,1.3,4,2.2c4.3,3.2,3.5,9.7-1.4,11.9C111.6,205.2,106,203.8,103.2,200.3z"/>
	<path class="st1" d="M193.9,190.3c-0.8,0-1.9,0-2.9,0c-0.5-2.9,0.3-4.2,3.1-4.9c2-0.5,4-0.6,6.1-0.1c2.8,0.7,4.3,2.4,4.5,5.3
		c0.2,2.7,0.1,5.3,0.1,8c0,1.8,0,1.8,1.9,1.9c0.1,0,0.2,0.1,0.4,0.1c0,1,0,1.9,0,3c-1,0-2,0-2.9,0c-2-0.1-2.5-0.5-2.7-2.6
		c-0.3,0.3-0.6,0.6-0.8,0.9c-2.2,2.5-6.7,2.8-9.2,0.6c-2.8-2.5-2.4-6.9,0.9-8.7c2.3-1.3,4.8-1.5,7.4-1.6c0.5,0,0.9,0,1.5,0
		c0.1-1.5,0-3-1.4-3.8c-1.5-0.9-3.3-0.9-4.8,0C194.4,188.7,194.3,189.5,193.9,190.3z M201,195c-2.1,0-4.3-0.1-6.3,0.9
		c-1.1,0.5-1.7,1.4-1.6,2.7c0.1,1.2,0.9,2.1,2.1,2.4C198.3,202.1,201.7,198.7,201,195z"/>
	<path class="st1" d="M130.8,204.1c-5.5,0.2-9.9-3.9-10.1-9.5c-0.2-5.2,4-9.4,9.4-9.7c5.6-0.2,10.1,3.8,10.3,9.1
		C140.7,199.7,136.6,203.9,130.8,204.1z M136.8,194.5c0-3.7-2.7-6.3-6.3-6.3c-3.4,0-6.1,2.8-6,6.5c0,3.6,2.8,6.4,6.2,6.3
		C134.1,201,136.8,198.1,136.8,194.5z"/>
	<path class="st1" d="M235.3,195.1c-4.3,0-8.6,0-13,0c0.1,2.2,1,4,2.8,5c3.1,1.8,5.9,0.8,8.6-1.2c0.5,0.8,1,1.6,1.5,2.5
		c-1.4,1.4-3.1,2.1-4.9,2.5c-5.4,1.2-10.5-1.8-11.6-7.1c-0.7-3.5-0.1-6.9,2.7-9.4c2.6-2.4,5.7-2.9,9-1.9
		C234.1,186.6,236.4,191.3,235.3,195.1z M231.7,192.4c0.1-2.5-1.6-4.4-4-4.5c-2.7-0.1-5,1.9-5.2,4.5
		C225.5,192.4,228.6,192.4,231.7,192.4z"/>
	<path class="st1" d="M174,233.6c-1.7,0-3.3,0-4.9,0c-1.2,0-1.8-0.7-1.8-2c-0.1-1.3,0-2.5,0-3.8c0-4.7,0-9.3,0-14
		c0-1.6,0-1.6-1.7-1.7c-0.1,0-0.3-0.1-0.5-0.1c0-1.2,0-2.4,0-3.8c1.8,0,3.6-0.1,5.4,0.1c0.5,0,1,0.8,1.3,1.4
		c0.2,0.5,0.1,1.1,0.1,1.6c0,5.4,0,10.8,0,16.1c0,2.1,0,2.1,2.1,2.4C174,230.9,174,232.2,174,233.6z"/>
	<path class="st1" d="M206.7,188.4c0-1,0-1.9,0-3c1.4,0,2.6-0.1,3.9,0c1.1,0.1,1.7,0.8,1.7,1.9c0,0.5,0,1,0.1,1.6
		c1.5-2.4,3.4-4,6.5-3.7c0,1.2,0,2.3,0,3.5c-1.8-0.2-3.4,0.3-4.6,1.7c-1.4,1.6-1.8,3.5-1.9,5.6c-0.1,2.5,0,5,0,7.6
		c-1.2,0-2.3,0-3.5,0c0-0.4,0-0.8,0-1.2c0-3.9,0-7.7,0-11.6C208.9,188.5,209.2,188.6,206.7,188.4z"/>
</g>
</svg>
