<?xml version="1.0" encoding="utf-8"?>
<!-- Generator: Adobe Illustrator 22.1.0, SVG Export Plug-In . SVG Version: 6.00 Build 0)  -->
<svg version="1.1" id="Layer_1" xmlns="http://www.w3.org/2000/svg" xmlns:xlink="http://www.w3.org/1999/xlink" x="0px" y="0px"
	 viewBox="0 0 340.2 340.2" style="enable-background:new 0 0 340.2 340.2;" xml:space="preserve">
<style type="text/css">
	.st0{fill:#EB5C2E;}
</style>
<g>
	<path class="st0" d="M298.4,248.9c-6.4,0-12.6,0-18.9,0c-2.5,0-5,0-7.5,0c-3.6-0.1-5.8-3.1-4.6-6.2c0.7-1.9,2.2-2.8,4.7-2.8
		c3.8,0,7.6,0.1,11.4,0.1c1.9,0,3.8,0,5.9,0c0-0.6,0-1.2,0-1.8c0-14.5,0-29.1,0-43.6c0-20-13.9-38-33.2-43.1c-0.3-0.1-0.7-0.2-1-0.3
		c-3.2-0.8-3.2-0.8-3.1-4.1c0.5-11.7-3.1-22.1-10.7-31c-19.7-23.1-55.9-20.5-72.2,5.1c-0.9,1.4-1.8,2.9-2.7,4.3
		c-2.7-2.2-5.2-4.4-8-6.3c-26.8-18.5-63.5-3.5-69.6,28.4c-0.4,2.2-1.3,3-3.4,3.6c-18.6,4.9-30.3,16.9-33.9,35.8
		c-4.7,24.6,11.8,47.6,36,52c4.1,0.8,16.4,1.2,20.1,0.7c-1.5-1.5-2.8-2.9-4.2-4.3c-1.3-1.3-1.7-2.8-1.2-4.6c0.8-3,4.7-4.2,6.9-2
		c4.2,4,8.4,8.2,12.4,12.4c1.6,1.6,1.6,4.1,0,5.7c-4.1,4.2-8.2,8.4-12.4,12.4c-1.7,1.7-4.5,1.4-6-0.4c-1.6-1.8-1.4-4.2,0.3-5.9
		c1.3-1.3,2.5-2.7,3.8-4.1c-0.3,0-0.8-0.1-1.3-0.1c-4.7-0.1-9.5,0.1-14.2-0.2c-12.7-0.9-23.8-5.7-33.1-14.5c-9.5-9-15-20-16.6-33
		c-3.1-25.5,12.3-49.6,36.7-57.6c1.3-0.4,1.8-1.1,2.2-2.3c6.8-21.2,21.1-34.3,43.1-38.4c14.2-2.7,27.3,0.6,39.3,8.6
		c0.3,0.2,0.6,0.4,0.8,0.6c0,0,0.1,0,0.1,0c2-2.1,3.9-4.3,6-6.3c9.2-8.6,20.1-13.4,32.7-14.3c26.3-2,50,15,56.5,40.7
		c0.9,3.4,1.2,6.9,1.6,10.4c0.1,0.8,0.3,1.1,1.1,1.4c16.2,5.9,27.3,17,33.3,33.3c2,5.3,2.9,10.9,3,16.6c0,18,0,36,0,54
		C298.5,248.1,298.4,248.4,298.4,248.9z"/>
	<path class="st0" d="M168.9,205.5c1.7-5.5,3.2-10.6,4.9-15.8c0.2-0.7,0.5-1.7,1-1.8c1.1-0.2,2.3-0.1,3.5,0c0.2,0,0.4,0.5,0.5,0.8
		c1.7,5.4,3.4,10.9,5.2,16.6c0.2-0.7,0.4-1.2,0.5-1.7c1.3-4.3,2.6-8.7,3.9-13c0.7-2.4,1.3-2.8,3.9-2.8c0.7,0,1.4,0,2.3,0
		c0,1.2,0,2.4,0,3.7c-1.4,0-1.9,1-2.3,2.2c-1.7,5.2-3.5,10.4-5.1,15.7c-0.3,0.9-0.7,1.2-1.6,1.2c-3.7,0-3.7,0-4.8-3.4
		c-1.4-4.2-2.7-8.4-4.1-12.9c-0.2,0.4-0.3,0.7-0.4,0.9c-1.5,4.7-3,9.4-4.5,14.2c-0.3,0.9-0.7,1.2-1.6,1.2c-3.7,0-3.7,0-4.9-3.5
		c-1.5-4.5-3-9-4.4-13.6c-0.5-1.5-1.3-2.1-2.8-2c-1.4,0.1-2.9,0-4.5,0c0,4-0.2,7.8,0.1,11.6c0.2,2.6,2.1,3.7,5.5,3.6
		c0,1.2,0,2.5,0,3.7c-4.1,1-9.7-0.9-10-6.7c-0.2-3.6-0.1-7.2-0.1-10.8c0-1.1-0.3-1.6-1.5-1.5c-1.8,0.1-3.5,0.1-5.3,0
		c-1,0-1.3,0.3-1.3,1.3c0,5.4,0,10.7,0,16.1c0,0.5,0,1.1,0,1.6c-1.5,0-2.9,0-4.5,0c0-6.4,0-12.6,0-19c-0.9,0-1.8,0-2.7,0
		c0-1.2,0-2.3,0-3.5c0.8,0,1.6,0,2.6,0c0.1-3.1,0.5-6,3.3-7.8c2.1-1.4,4.5-1.6,7-1.3c0,1.2,0,2.4,0,3.7c-1.7,0-3.6,0-4.7,1.6
		c-0.7,1-0.9,2.3-1.4,3.6c3,0,5.6,0,8.4,0c0-1.9,0-3.9,0-6c1.5,0,2.9,0,4.4,0c0,2,0,3.9,0,6.1c2.5,0,4.8,0,7.2,0
		c2.9,0,3.4,0.4,4.2,3.1C166,195.7,167.5,200.4,168.9,205.5z"/>
	<path class="st0" d="M252.2,242.7c0,1.6,0,3.1,0,4.8c-2.1,0-4,0.1-6,0c-1.5-0.1-2-1.2-2.2-2.7c-2.4,2.9-5.4,3.7-8.7,3.1
		c-4.3-0.7-6.7-3.5-7.9-7.5c-0.8-2.8-0.8-5.7,0-8.5c2-7.3,10-10.1,16.3-5.4c0-1.8,0-3.4,0-5c0-0.3-0.6-0.6-0.9-0.7
		c-0.5-0.1-1.1,0-1.7,0c0-1.7,0-3.2,0-4.9c2.1,0,4.3-0.1,6.4,0c1.4,0.1,2.1,1.2,2.1,3c0,7,0,14.1,0,21.1c0,0.3,0,0.6,0,0.9
		c-0.1,1.2,0.3,1.9,1.6,1.7C251.5,242.5,251.8,242.6,252.2,242.7z M232.6,235.8c0.2,1.2,0.3,2.2,0.5,3.1c0.7,2.6,2.7,4.2,5.1,4.2
		c2.5,0,4.4-1.5,5.2-4.1c0.6-2.2,0.6-4.3-0.2-6.4c-0.9-2.1-2.4-3.4-4.8-3.5c-2.1-0.1-4.1,1.2-5,3.4
		C233,233.6,232.9,234.8,232.6,235.8z"/>
	<path class="st0" d="M163.2,226c-1.9,0-3.5,0-5.3,0c-0.1-0.3-0.2-0.6-0.2-0.8c0.3-2.2-1-3.1-2.9-3.8c-4.4-1.5-9.1-0.1-11.6,3.4
		c-2.7,3.8-2.6,9.7,0.3,13.6c2.8,3.7,7.4,5.1,12,3.4c1-0.4,2-0.8,2.9-1.4c0.9-0.6,1.7-1.3,2.7-2c1,1.4,2,2.7,3.1,4.2
		c-3,3.1-6.6,4.9-10.8,5.4c-7.2,0.9-13.8-2.7-16.8-9.1c-3.1-6.6-1.6-14.7,3.6-19.5c5.9-5.5,14.9-4.9,20.2-1.7c1.9,1.2,3,2.9,2.9,5.2
		C163.1,223.9,163.2,224.8,163.2,226z"/>
	<path class="st0" d="M218.3,224.7c2,0,3.7,0,5.8,0c0,0.5,0,1,0,1.5c0,4.7,0,9.5,0,14.2c0,2.1,0,2.1,2.1,2.2c0.2,0,0.4,0.1,0.7,0.1
		c0,1.5,0,3.1,0,4.8c-2.1,0-4.2,0.1-6.2,0c-1.4-0.1-1.9-1-2.1-3.5c-2.2,3-5,4.3-8.6,4.1c-3.9-0.2-6.5-2.5-6.8-6.4
		c-0.2-3-0.2-6-0.2-9.1c0-2.7,0-2.7-2.6-3.1c0-0.3-0.1-0.5-0.1-0.8c0-1.3,0-2.5,0-3.9c2.2,0,4.3-0.1,6.3,0c1.5,0.1,2.1,1.1,2.1,2.7
		c0,3.1,0,6.1,0,9.2c0,0.5,0,1.1,0,1.6c0.1,1.6,0.1,3.4,1.8,4.1c1.9,0.8,3.8,0.3,5.3-1c1.9-1.6,2.6-3.7,2.6-6.1c0-3,0-5.9,0-8.9
		C218.3,225.9,218.3,225.3,218.3,224.7z"/>
	<path class="st0" d="M187.6,248.1c-7.3-0.1-12.4-5.2-12.4-12.3c0.1-6.6,5.5-11.7,12.6-11.6c7.1,0.1,12.4,5.2,12.4,12
		C200.2,243.1,194.8,248.1,187.6,248.1z M194.3,236.1c0-4-2.8-7-6.6-7c-3.8,0-6.7,3-6.7,7c0,4,2.8,7,6.6,7
		C191.5,243.1,194.3,240.1,194.3,236.1z"/>
	<path class="st0" d="M87.1,206.2c0.9-1.1,1.7-2.1,2.7-3.2c1.9,1.8,3.9,3.4,6.5,3.6c1.4,0.1,3,0,4.2-0.6c3-1.3,3.3-5.1,0.7-7
		c-1.5-1.1-3.3-1.9-4.9-2.8c-2-1.1-4.2-2.1-5.8-3.5c-4.1-3.6-3.5-9.8,1.2-12.6c4.1-2.5,8.4-2.3,12.6-0.2c2.5,1.3,3.2,3.3,2.6,6.8
		c-1.3,0-2.6,0-4.1,0c0-1.5-0.1-2.9-1.8-3.6c-2-0.8-3.9-0.9-5.8-0.1c-3.1,1.3-3.6,4.7-0.9,6.7c1.5,1.1,3.3,1.8,5,2.7
		c1.7,0.9,3.5,1.6,5,2.8c5.3,4,4.3,12-1.7,14.8C97.5,212.2,90.6,210.5,87.1,206.2z"/>
	<path class="st0" d="M199.7,193.8c-1,0-2.3,0-3.6,0c-0.6-3.6,0.4-5.2,3.8-6.1c2.5-0.6,5-0.7,7.5-0.1c3.4,0.9,5.4,3,5.6,6.6
		c0.2,3.3,0.1,6.6,0.1,9.9c0,2.2,0,2.2,2.3,2.4c0.1,0,0.3,0.1,0.5,0.1c0,1.2,0,2.4,0,3.8c-1.2,0-2.4,0-3.6,0c-2.4-0.1-3-0.6-3.4-3.2
		c-0.4,0.4-0.7,0.8-1,1.1c-2.8,3.1-8.3,3.5-11.4,0.8c-3.5-3.1-3-8.5,1.2-10.8c2.8-1.6,6-1.9,9.2-2c0.6,0,1.2,0,1.8,0
		c0.1-1.9,0-3.7-1.7-4.7c-1.9-1.1-4.1-1.1-6,0C200.3,191.8,200.1,192.8,199.7,193.8z M208.5,199.6c-2.7,0-5.3-0.1-7.8,1.1
		c-1.4,0.7-2.2,1.8-2,3.4c0.1,1.4,1.1,2.5,2.6,3C205.2,208.4,209.3,204.2,208.5,199.6z"/>
	<path class="st0" d="M121.4,211c-6.8,0.3-12.3-4.9-12.5-11.7c-0.2-6.4,5-11.7,11.7-12c6.9-0.3,12.5,4.7,12.8,11.3
		C133.6,205.4,128.5,210.7,121.4,211z M128.7,199c0-4.6-3.3-7.9-7.8-7.8c-4.3,0-7.5,3.5-7.5,8c0.1,4.4,3.4,7.9,7.7,7.9
		C125.5,207.1,128.8,203.5,128.7,199z"/>
	<path class="st0" d="M251,199.7c-5.3,0-10.7,0-16.2,0c0.2,2.8,1.2,4.9,3.5,6.2c3.8,2.2,7.3,1,10.7-1.5c0.6,1,1.2,2,1.9,3
		c-1.7,1.8-3.8,2.7-6.1,3.2c-6.7,1.5-13-2.3-14.4-8.9c-0.9-4.4-0.1-8.5,3.3-11.7c3.2-2.9,7-3.6,11.2-2.4
		C249.5,189.2,252.4,195,251,199.7z M246.6,196.4c0.1-3.2-2-5.5-5-5.6c-3.3-0.1-6.2,2.4-6.5,5.6
		C238.9,196.4,242.7,196.4,246.6,196.4z"/>
	<path class="st0" d="M175,247.5c-2.1,0-4.1,0-6.1,0c-1.5,0-2.2-0.9-2.3-2.5c-0.1-1.6,0-3.1,0-4.7c0-5.8,0-11.6,0-17.4
		c0-2,0-2-2.1-2.2c-0.2,0-0.4-0.1-0.6-0.1c0-1.5,0-3,0-4.7c2.2,0,4.5-0.1,6.7,0.1c0.6,0.1,1.2,1,1.6,1.7c0.3,0.6,0.2,1.3,0.2,2
		c0,6.7,0,13.4,0,20c0,2.6,0,2.6,2.6,2.9C175,244.2,175,245.7,175,247.5z"/>
	<path class="st0" d="M215.5,191.5c0-1.3,0-2.4,0-3.7c1.7,0,3.3-0.1,4.9,0c1.4,0.1,2.1,1,2.2,2.3c0,0.6,0,1.3,0.1,2
		c1.8-3,4.2-5,8-4.6c0,1.5,0,2.8,0,4.3c-2.2-0.2-4.2,0.4-5.7,2.1c-1.8,2-2.2,4.4-2.3,6.9c-0.1,3.1,0,6.2,0,9.5c-1.4,0-2.8,0-4.4,0
		c0-0.5,0-1,0-1.5c0-4.8,0-9.6,0-14.3C218.2,191.5,218.6,191.7,215.5,191.5z"/>
</g>
</svg>
