<?xml version="1.0" encoding="utf-8"?>
<!-- Generator: Adobe Illustrator 25.0.1, SVG Export Plug-In . SVG Version: 6.00 Build 0)  -->
<svg version="1.1" id="Layer_1" xmlns="http://www.w3.org/2000/svg" xmlns:xlink="http://www.w3.org/1999/xlink" x="0px" y="0px"
	 viewBox="0 0 250 250" style="enable-background:new 0 0 250 250;" xml:space="preserve">
<style type="text/css">
	.st0{fill:#FFFFFF;}
</style>
<g>
	<polygon class="st0" points="140.6,119.7 147,119.7 147,117.4 140.6,117.4 140.6,111.9 153.8,111.9 153.8,109.6 137.9,109.6 
		137.9,127.3 154.4,127.3 154.4,125 140.6,125 	"/>
	<path class="st0" d="M228.9,117.5l-4-0.8c-2.1-0.4-3-1.2-3-2.3c0-1.9,2.6-2.6,4.8-2.6c0.1,0,0.1,0,0.2,0c3.7,0.1,6.2,1.4,6.2,1.4
		l0.2,0.1l0.8-2.2l-0.3-0.1c-1.4-0.7-4.1-1.4-6.8-1.4c-5.7,0-7.8,2.6-7.8,5c0,2.3,1.7,3.9,5,4.6l3.8,0.8c2.6,0.5,3.7,1.2,3.7,2.5
		c0,1.8-2.1,3-5.3,3h-0.1c-3,0-6.1-1.6-6.2-1.6l-0.2-0.1l-0.7,2.3l0.3,0.1c1.4,0.7,4.1,1.5,6.8,1.5c4.8,0,8.2-2.2,8.2-5.4
		C234.4,119.7,232.8,118.4,228.9,117.5"/>
	<path class="st0" d="M204,123.6c-1.1,0.9-2.3,1.3-3.7,1.3c-1.6,0-7.8,0-7.8,0v-13h7.2c3.5,0,6.3,2.2,6.8,5.4
		C206.9,119.8,206.1,121.9,204,123.6 M199.7,109.6h-9.8v17.7c0,0,8.9,0,10.2,0h0c2.2,0,4.1-0.7,5.8-2c3.3-2.6,4.3-6.6,2.8-10.2
		C207.5,112.6,205,109.6,199.7,109.6"/>
	<path class="st0" d="M21.8,124.9h-3.5l0-13h3.5c3.8,0,4.1,0,4.6,0.1c1.1,0.2,2,1,2.1,2c0.4,2.6-2.6,3-3.5,3c-1.1,0-2,0-2.9,0
		c-1,0-1.8,0.5-2.4,1.3l-0.8,1.1h5.7c4.3,0,5.1,1.8,4.9,3.2c-0.2,1.3-1.3,2.1-2.8,2.2C25.9,124.9,25.3,124.9,21.8,124.9 M30.1,118.5
		c-0.2-0.1-0.5-0.4-0.7-0.5c1.2-0.8,1.9-2.2,1.8-3.7c0-1.4-0.7-2.8-1.8-3.5c-1.2-0.8-2.6-1.3-4.3-1.3h-9.5v17.7h10
		c1.1,0,2.2,0,3.2-0.4c1.8-0.7,3.1-2.1,3.3-3.9C32.3,121.3,31.6,119.6,30.1,118.5"/>
	<path class="st0" d="M46.5,140c1.4,0,2.4-1,2.4-2.4c0-1.4-1-2.4-2.4-2.4c-1.4,0-2.4,1-2.4,2.4C44.1,139,45.1,140,46.5,140
		 M46.5,134.7c1.7,0,3,1.3,3,3c0,1.7-1.3,2.9-3,2.9c-1.7,0-3-1.3-3-2.9C43.5,135.9,44.8,134.7,46.5,134.7"/>
	<path class="st0" d="M53.3,135.2v3h1.8c0.8,0,1.5-0.5,1.5-1.5c0-1-0.7-1.5-1.5-1.5H53.3z M52.7,134.7h2.5c1.1,0,2,0.6,2,2
		c0,1.2-0.9,2-2,2h-1.9v1.7h-0.6C52.7,140.5,52.7,134.7,52.7,134.7z"/>
	<polygon class="st0" points="62.4,135.2 62.4,140.5 61.8,140.5 61.8,135.2 59.5,135.2 59.5,134.7 64.5,134.7 64.5,135.2 	"/>
	<rect x="67.3" y="134.7" class="st0" width="0.6" height="5.7"/>
	<path class="st0" d="M74.2,140c0.8,0,1.5-0.3,2-0.8l0.3,0.4c-0.6,0.6-1.4,0.9-2.3,0.9c-1.7,0-3-1.3-3-3c0-1.7,1.3-3,3-3
		c0.9,0,1.7,0.3,2.3,0.9l-0.3,0.4c-0.5-0.5-1.2-0.8-2-0.8c-1.4,0-2.4,1-2.4,2.4C71.7,139,72.7,140,74.2,140"/>
	<rect x="79.6" y="134.7" class="st0" width="0.6" height="5.7"/>
	<path class="st0" d="M84.4,138.6h2.9l-1.4-3.3L84.4,138.6z M85.6,134.7h0.7l2.4,5.7H88l-0.6-1.4h-3.2l-0.6,1.4h-0.6L85.6,134.7z"/>
	<polygon class="st0" points="92.1,135.7 92.1,140.5 91.5,140.5 91.5,134.7 92.1,134.7 96.2,139.6 96.2,134.7 96.8,134.7 
		96.8,140.5 96.3,140.5 	"/>
	<path class="st0" d="M100.2,139.5c0.4,0.2,1.1,0.5,1.8,0.5c1,0,1.7-0.4,1.7-1.1c0-0.5-0.4-0.8-1.2-1l-1.1-0.3
		c-0.9-0.2-1.4-0.7-1.4-1.4c0-0.8,0.7-1.6,2.2-1.6c0.8,0,1.6,0.2,2,0.5l-0.2,0.5c-0.4-0.2-1.2-0.5-1.8-0.5c-1.1,0-1.6,0.5-1.6,1
		c0,0.5,0.3,0.8,1,0.9l1.2,0.3c1,0.3,1.6,0.7,1.6,1.5c0,1-1,1.7-2.3,1.7c-0.8,0-1.6-0.3-2-0.5L100.2,139.5z"/>
	<path class="st0" d="M112.9,137.3l0.6-0.2c0.6-0.2,0.8-0.5,0.8-1c0-0.5-0.5-0.9-1.1-0.9c-0.8,0-1.1,0.4-1.1,0.9
		C112.1,136.5,112.6,136.9,112.9,137.3 M114.5,139.5l-1.7-1.6c-0.6,0.2-1.2,0.5-1.2,1.1c0,0.6,0.5,1.1,1.4,1.1
		C113.5,140,114,139.8,114.5,139.5 M116.2,137.5c-0.2,0.7-0.5,1.3-1,1.9l1,1v0.1h-0.8l-0.7-0.6c-0.5,0.4-1.2,0.7-1.9,0.7
		c-1.2,0-2-0.6-2-1.5c0-0.8,0.7-1.3,1.4-1.5c-0.4-0.4-0.8-0.8-0.8-1.4c0-0.8,0.6-1.4,1.7-1.4c1,0,1.7,0.6,1.7,1.4
		c0,0.8-0.5,1.2-1.2,1.5l-0.4,0.2l1.6,1.4c0.4-0.5,0.7-1.1,0.9-1.8L116.2,137.5z"/>
	<path class="st0" d="M123.4,138.6h2.9l-1.4-3.3L123.4,138.6z M124.6,134.7h0.7l2.4,5.7H127l-0.6-1.4h-3.2l-0.6,1.4h-0.6
		L124.6,134.7z"/>
	<path class="st0" d="M130.9,138.1c0,1.1,0.6,1.9,1.9,1.9c1.3,0,1.9-0.9,1.9-1.9v-3.4h0.6v3.4c0,1.3-0.8,2.4-2.5,2.4
		c-1.7,0-2.5-1-2.5-2.4v-3.4h0.6L130.9,138.1L130.9,138.1z"/>
	<path class="st0" d="M139.4,135.2v4.7h1.6c1.4,0,2.4-0.8,2.4-2.4s-1-2.4-2.4-2.4L139.4,135.2L139.4,135.2z M138.8,134.7h2.2
		c1.7,0,3,1,3,2.9c0,1.8-1.3,2.9-3,2.9h-2.2V134.7z"/>
	<rect x="147.3" y="134.7" class="st0" width="0.6" height="5.7"/>
	<path class="st0" d="M154.1,140c1.4,0,2.4-1,2.4-2.4c0-1.4-1-2.4-2.4-2.4s-2.4,1-2.4,2.4C151.6,139,152.7,140,154.1,140
		 M154.1,134.7c1.7,0,3,1.3,3,3c0,1.7-1.3,2.9-3,2.9c-1.7,0-3-1.3-3-2.9C151.1,135.9,152.4,134.7,154.1,134.7"/>
	<polygon class="st0" points="160.3,140.5 160.3,134.7 160.9,134.7 160.9,140 164.2,140 164.2,140.5 	"/>
	<path class="st0" d="M169.3,140c1.4,0,2.4-1,2.4-2.4c0-1.4-1-2.4-2.4-2.4s-2.4,1-2.4,2.4C166.9,139,167.9,140,169.3,140
		 M169.3,134.7c1.7,0,3,1.3,3,3c0,1.7-1.3,2.9-3,2.9c-1.7,0-3-1.3-3-2.9C166.3,135.9,167.6,134.7,169.3,134.7"/>
	<path class="st0" d="M180.7,139.8c-0.5,0.4-1.5,0.7-2.4,0.7c-1.7,0-3.1-1.1-3.1-2.9c0-1.9,1.4-3,3.1-3c0.9,0,1.6,0.3,2.2,0.8
		l-0.3,0.4c-0.5-0.4-1.1-0.7-1.9-0.7c-1.4,0-2.5,0.9-2.5,2.4c0,1.5,1.1,2.4,2.5,2.4c0.7,0,1.4-0.2,1.8-0.5v-1.6H178v-0.5h2.7
		L180.7,139.8L180.7,139.8z"/>
	<rect x="184" y="134.7" class="st0" width="0.6" height="5.7"/>
	<path class="st0" d="M187.9,139.5c0.4,0.2,1.1,0.5,1.8,0.5c1,0,1.7-0.4,1.7-1.1c0-0.5-0.4-0.8-1.2-1l-1.1-0.3
		c-0.9-0.2-1.4-0.7-1.4-1.4c0-0.8,0.7-1.6,2.2-1.6c0.8,0,1.6,0.2,2,0.5l-0.2,0.5c-0.4-0.2-1.2-0.5-1.8-0.5c-1.1,0-1.6,0.5-1.6,1
		c0,0.5,0.3,0.8,1,0.9l1.2,0.3c1,0.3,1.6,0.7,1.6,1.5c0,1-1,1.7-2.3,1.7c-0.8,0-1.6-0.3-2-0.5L187.9,139.5z"/>
	<polygon class="st0" points="197.4,135.2 197.4,140.5 196.8,140.5 196.8,135.2 194.5,135.2 194.5,134.7 199.5,134.7 199.5,135.2 	
		"/>
	<path class="st0" d="M202.2,139.5c0.4,0.2,1.1,0.5,1.8,0.5c1,0,1.7-0.4,1.7-1.1c0-0.5-0.4-0.8-1.2-1l-1.1-0.3
		c-0.9-0.2-1.4-0.7-1.4-1.4c0-0.8,0.7-1.6,2.2-1.6c0.8,0,1.6,0.2,2,0.5l-0.2,0.5c-0.4-0.2-1.2-0.5-1.8-0.5c-1.1,0-1.6,0.5-1.6,1
		c0,0.5,0.3,0.8,1,0.9l1.2,0.3c1,0.3,1.6,0.7,1.6,1.5c0,1-1,1.7-2.3,1.7c-0.8,0-1.6-0.3-2-0.5L202.2,139.5z"/>
	<rect x="15.6" y="137.4" class="st0" width="23.8" height="0.4"/>
	<rect x="210.6" y="137.4" class="st0" width="23.6" height="0.4"/>
	<path class="st0" d="M60.6,127.3l-9.5-17.7h-2.7l-9.6,17.7h3l2.9-5.3h10.2l2.8,5.3H60.6z M45.9,119.6l3.8-7l3.8,7H45.9z"/>
	<polygon class="st0" points="99.5,117.4 99.5,111.9 112.6,111.9 112.6,109.6 96.8,109.6 96.8,127.3 99.5,127.3 99.5,119.8 
		105.9,119.8 105.9,117.4 	"/>
	<polygon class="st0" points="73.9,127.3 76.6,127.3 76.6,121.7 86.4,109.6 83,109.6 75.2,119.3 67.5,109.6 64.1,109.6 73.9,121.7 	
		"/>
	<polygon class="st0" points="168.4,125 168.4,109.6 165.7,109.6 165.7,127.3 180.3,127.3 180.3,125 	"/>
	<rect x="123.2" y="109.6" class="st0" width="2.7" height="17.7"/>
</g>
</svg>
