<?xml version="1.0" encoding="utf-8"?>
<!-- Generator: Adobe Illustrator 22.1.0, SVG Export Plug-In . SVG Version: 6.00 Build 0)  -->
<svg version="1.1" id="Layer_1" xmlns="http://www.w3.org/2000/svg" xmlns:xlink="http://www.w3.org/1999/xlink" x="0px" y="0px"
	 viewBox="0 0 100 100" style="enable-background:new 0 0 100 100;" xml:space="preserve">
<style type="text/css">
	.st0{fill:#EB5C2E;}
	.st1{fill:#FFFFFF;}
	.st2{fill:#A64120;}
	.st3{fill:#B5B5B5;}
</style>
<g>
	<polygon class="st0" points="28.7,31.7 32.7,40.3 32.7,46.1 34.1,50.7 50,50.7 75.7,50.7 77.2,46.1 77.2,40.3 81.2,31.7 80.1,31.7 
		50,31.7 	"/>
	<polygon class="st0" points="38.4,78.8 41.2,93.2 59.8,93.2 69,93.2 68.4,97 68.6,97 71.4,78.8 50,78.8 	"/>
	<polygon class="st1" points="34.1,50.7 32.5,50.7 37.6,78.8 38.4,78.8 50,78.8 71.4,78.8 72.2,78.8 77.4,50.7 75.7,50.7 50,50.7 	
		"/>
	<polygon class="st2" points="22.8,46.1 24.3,50.7 32.5,50.7 34.1,50.7 32.7,46.1 32.7,40.3 28.7,31.7 19.9,31.7 19.7,31.7 
		18.8,31.7 22.8,40.3 	"/>
	<polygon class="st2" points="28.4,78.8 31.2,97 31.4,97 28.6,78.8 	"/>
	<polygon class="st2" points="59.8,93.2 41.2,93.2 38.4,78.8 37.6,78.8 28.6,78.8 31.4,97 49.8,97 50,97 68.4,97 69,93.2 	"/>
	<polygon class="st3" points="37.6,78.8 32.5,50.7 24.3,50.7 24.1,50.7 22.6,50.7 27.8,78.8 28.4,78.8 28.6,78.8 	"/>
	<g>
		<path class="st1" d="M27.6,17.7v10.6c0,0.6,0.2,1.1,0.4,1.6l0.2,0.4c0.5,0.9,1.5,1.5,2.6,1.5H50h30.1c1.1,0,2-0.6,2.6-1.5l0.2-0.4
			c0.3-0.5,0.4-1,0.4-1.6V17.7H50H27.6z"/>
		<path class="st1" d="M82.7,3.2L82.7,3.2C82.2,2.5,81.3,2,80.3,2L50,2.2L30,2.1c-0.7,0.1-1.4,0.5-1.8,1.1v0
			c-0.4,0.5-0.6,1.2-0.6,1.9V17H50h33.4V5.1C83.4,4.4,83.1,3.7,82.7,3.2z"/>
		<path class="st3" d="M28.2,30.3L28,29.9c-0.3-0.5-0.4-1-0.4-1.6V17.7H16.6v10.6c0,0.6,0.2,1.1,0.4,1.6l0.2,0.4
			c0.5,0.9,1.5,1.5,2.6,1.5h8.8h2.2C29.8,31.7,28.8,31.2,28.2,30.3z"/>
		<polygon class="st3" points="30,2.1 19.7,2 30,2.1 		"/>
		<path class="st3" d="M28.2,3.2L28.2,3.2c0.5-0.6,1.1-1,1.8-1.1L19.7,2c-0.9,0-1.8,0.4-2.4,1.2v0c-0.4,0.5-0.6,1.2-0.6,1.9V17h10.9
			V5.1C27.6,4.4,27.8,3.7,28.2,3.2z"/>
	</g>
</g>
</svg>
