<?xml version="1.0" encoding="utf-8"?>
<!-- Generator: Adobe Illustrator 25.0.1, SVG Export Plug-In . SVG Version: 6.00 Build 0)  -->
<svg version="1.1" id="Layer_1" xmlns="http://www.w3.org/2000/svg" xmlns:xlink="http://www.w3.org/1999/xlink" x="0px" y="0px"
	 viewBox="0 0 250 250" style="enable-background:new 0 0 250 250;" xml:space="preserve">
<style type="text/css">
	.st0{fill:#FFFFFF;}
</style>
<g>
	<path class="st0" d="M105.89,190.04H94.57l-20.35-27.4l-20.47,27.4H42.82l25.81-34.16l-24.8-32.99h11.19l19.46,25.97l19.46-25.97
		h10.94l-24.92,32.73L105.89,190.04z"/>
	<path class="st0" d="M147.44,78.37c-5.14,3.73-10.23,9.19-15.25,16.4l-10.4-7.69c2.87-4.27,5.8-8.12,8.79-11.53
		c2.99-3.41,6.25-6.26,9.78-8.55c3.53-2.29,7.47-4.03,11.84-5.24c4.36-1.2,9.3-1.81,14.8-1.81c5.74,0,10.97,0.92,15.7,2.75
		c4.72,1.83,8.82,4.37,12.29,7.6c3.47,3.24,6.16,7.09,8.07,11.54c1.91,4.46,2.87,9.32,2.87,14.57c0,4.76-0.63,9.1-1.88,13.01
		c-1.26,3.91-3.2,7.79-5.83,11.63c-2.63,3.85-5.92,7.82-9.87,11.91c-3.95,4.09-8.67,8.58-14.17,13.47l-33.55,30.41h66.55v13.19
		h-87.72v-11.19l45.57-41.11c4.78-4.4,8.85-8.38,12.2-11.93c3.35-3.55,6.07-6.88,8.16-10c2.09-3.12,3.59-6.18,4.48-9.17
		c0.9-3,1.35-6.09,1.35-9.27c0-3.79-0.69-7.19-2.06-10.18c-1.38-3-3.2-5.57-5.47-7.71c-2.27-2.14-4.96-3.79-8.07-4.96
		c-3.11-1.16-6.34-1.74-9.69-1.74C158.75,72.78,152.59,74.65,147.44,78.37z"/>
</g>
</svg>
